<?xml version="1.0" encoding="UTF-8" standalone="no"?><!DOCTYPE svg PUBLIC "-//W3C//DTD SVG 1.1//EN" "http://www.w3.org/Graphics/SVG/1.1/DTD/svg11.dtd"><svg width="100%" height="100%" viewBox="0 0 247 247" version="1.1" xmlns="http://www.w3.org/2000/svg" xmlns:xlink="http://www.w3.org/1999/xlink" xml:space="preserve" xmlns:serif="http://www.serif.com/" style="fill-rule:evenodd;clip-rule:evenodd;stroke-linecap:round;stroke-linejoin:round;"><rect id="Artboard3" x="0" y="0" width="246.312" height="246.312" style="fill:none;"/><g><path d="M170.041,181.05l-1.001,-0.19l0.686,-0.6l-0.289,-0.01l-1,-1.3l0.263,-0.23l-1.614,-1.17l-2.725,-3.43l-2.24,-1.86l-3.072,-3.74l-2.385,-1.9l-1.704,-2.29l-5.017,-5.12l-2.606,-2.52l-0.717,-0.34l-0.557,-0.83l-0.963,-0.57l-3.865,-4.35l-3.306,-2.58l-4.158,-4.36l-0.004,-0.43l-0.974,-0.63l-3.478,-3.58l-0.89,-0.5l-0.436,-0.77l-1.033,-0.44l-0.336,-0.84l-1.19,-0.55l-0.501,-1.19l-1.137,-1.44l-4.053,-3.58l-1.12,-1.64l-1.21,-1.11l0.083,-0.36l-2.551,-1.74l-1.942,-2.09l-1.523,-0.94l-0.51,-0.84l-1.008,-0.41l-0.192,-0.57l-5.099,-5.19l-4.275,-3.82l-2.526,-2.76l0.005,-0.41l-1.092,-0.77l0.007,-0.43l-1.078,-0.34l-2.832,-2.13l-4.193,-4.95l-3.237,-2.96l-1.299,-0.67l-4.88,-5.7l0.045,-0.5l-3.928,-3.07l-5.207,-5.31l-1.849,-1.56l-1.025,-0.3l-0.313,-0.64l-1.899,-1.59l0.077,-0.42l-5.093,-4.14l-2.299,-2.44l-1.594,-0.83l-0.376,-0.55l-0.897,-0.22l-0.318,-0.76l-0.957,-0.25l0.089,-0.28l-0.842,-0.52l-0.602,-1.01l-3.854,-2.89l-1.381,-2.13l-1.629,-1.17l0.224,-0.21l-2.693,-1.6l-1.147,-0.31l-1.001,-0.92l-1.294,-1.82l-3.093,-2.84l-2.532,-3.48l-3.233,-2.83l-0.778,-1.35l-3.474,-2.91l0.198,-0.24l-2.192,-2.51l0.284,-0.15l-0.704,0.01l-0.684,-0.37l0.121,-0.39l-0.66,-0.15l0.303,-0.23l-0.195,-0.45l-0.518,-0.21l-0.497,-0.89l0.289,-0.15l-0.278,-0.16l0.321,0.01l-1.264,-0.81l0.41,-0.55l-0.79,-0.43l0.182,-0.2l-0.58,-0.13l0.453,-0.19l-0.163,-0.63l0.423,-0.13l-0.607,-0.32l-0.158,-0.72l0.393,-0.06l-0.392,-0.04l0.198,-0.11l-0.205,-0.2l0.282,-0.04l-0.908,-0.18l0.445,-0.03l-0.206,-0.15l0.584,-0.35l-0.444,-0.26l0.696,-0.17l-0.202,-0.11l0.331,-0.2l-0.293,-0.23l0.411,-0.04l-0.267,-0.14l0.322,-0.16l-0.275,-0.07l0.703,0.05l0.878,-0.71l1.269,-0.21l2.935,0.29l-0.266,0.07l0.487,0.31l2.404,0.62l-0.394,0.19l1.429,0.76l-0.397,0.16l0.925,0.11l4.486,3.1l0.688,0.8l-0.116,0.23l3.48,2.71l0.545,0.62l-0.182,0.23l1.397,0.65l-0.007,0.28l1.874,1.53l4.422,3.17l1.934,2.71l2.896,2.23l2.181,2.3l-0.004,0.43l2.559,2.53l0.571,0.23l1.066,1.41l2.54,2.26l0.947,0.29l-0.163,0.14l1.347,1.48l0.032,0.39l0.907,0.53l-0.182,0.28l1.132,0.66l0.061,0.36l2.12,1.58l0.585,0.79l0.901,0.43l3.926,3.67l0.993,0.36l-0.018,0.61l0.755,0.51l0.425,0.85l3.12,2.56l0.869,0.31l0.111,0.47l2.319,2.28l0.087,0.5l0.976,0.72l-0.196,0.29l3.492,2.2l1.993,1.89l1.077,1.49l1.262,0.82l1.621,1.94l0.768,0.38l0.122,0.54l1.471,1.76l2.16,1.75l1.525,1.82l2.173,3.19l4.085,3.34l3.35,3.94l0.906,0.31l0.167,0.72l1.878,1.97l-0.268,0.31l2.567,1.26l2.335,2.35l-0.228,0.31l0.793,0.61l-0.339,0.26l4.188,3.01l0.159,0.51l2.578,2.46l1.275,0.57l0.317,0.68l1.043,0.3l-0.298,0.06l0.058,0.4l0.39,0.22l0.263,0.97l2.488,1.59l-0.04,0.31l2.649,1.53l0.942,1.72l2.557,2l4.001,4.34l2.662,2.2l1.028,1.73l-0.165,0.2l2.658,2.17l0.673,0.94l1.583,1.08l2.028,2.25l3.9,2.86l1.192,1.53l-0.257,0.25l2.469,1.43l2.533,2.49l0.799,0.03l-0.246,0.07l0.246,0.43l0.568,0.06l-0.128,0.35l0.657,0.23l-0.286,0.06l0.861,1.17l2.075,1.6l0.433,0.66l-0.303,0.19l0.671,0.09l-0.505,0.06l0.875,0.26l0.542,0.81l1.258,0.44l-0.209,-0.04l0.093,0.59l0.783,0.61l1.125,0.3l-0.358,0.24l0.746,0.54l-0.359,0.35l1.553,0.84l0.784,0.74l-0.075,0.23l1.887,1.16l0.01,0.43l0.986,0.36l0.414,0.56l-0.054,0.68l0.588,0.02l1.079,1.03l0.831,-0.05l-0.356,0.33l0.394,0.09l-0.639,0.63l0.866,-0l-0.655,0.32l1.49,0.07l-0.371,0.49l0.73,-0.08l-1.185,0.41l1.29,0.25l-0.299,0.04l1.275,0.63l-0.593,0.05l0.828,0.41l-0.233,0.29l0.557,0.22l-0.102,-0.29l0.361,0.07l-0.556,0.19l0.021,0.25l0.024,-0.24l-0.5,0.1l0.62,-0.23l0.049,0.63l0.73,0.01l-0.019,0.41l0.414,-0.18l-0.276,-0.05l-0.069,0.35l0.243,-0.01l-0.31,0.17l0.249,0.11l-0.362,0.08l0.983,0.1l-0.296,0.2l0.303,0.13l-0.729,0.69l0.579,0.02l-0.558,0.05l1.101,-0.03l0.177,0.18l-0.455,0.09l0.483,-0.24l-0.351,0.19l0.726,0.08l-1.359,0.15l0.712,0.1l0.298,0.44l-0.538,0.14l1.047,0.65l-0.571,0.22l0.155,-0.13l-0.546,-0.22l0.619,-0.02l-0.369,0.04l-0.018,-0.28l0.288,0.06l-0.923,0.74l-0.803,0.15l-0.072,0.44l-2.009,0.54l0.363,0.2l0.047,-0.22l-0.168,0.35l-0.075,-0.22l-0.469,0.52l-1.196,0.43l-0.526,0.58l0.274,0.09l-1.864,0.68l0.542,0.06l-0.536,-0.03l0.245,0.03l-0.326,0.6l-1.383,0.5l1.418,-0.13l-1.441,0.53l-0.178,0.23l0.44,0.12l-0.162,0.36l-0.668,0.14l0.395,0.04l-0.381,0.1l0.529,0.15l0.2,0.25l-0.214,0.32l0.29,0.06l-0.635,0.39l0.107,0.71l0.398,0.04l-0.258,0.17l0.336,0.24l-0.443,-0.1l-0.358,0.3l0.79,0.59l-0.4,0.05l0.131,0.21l0.677,-0.11l-0.55,0.3l0.454,0.2l-0.552,0.22l0.493,0.89l-0.689,0.06l0.386,-0.08l-0.303,0.31l1.395,0.35l-0.169,0.82l0.619,0.23l-0.194,0.3l0.657,-0.03l-0.47,0.1l0.072,0.32l0.667,0.11l-0.301,0.14l-0.114,0.4l0.319,0.47l-0.308,0.2l0.53,0.2l-0.444,0.33l0.671,-0.01l0.639,0.58l0.189,0.59l0.8,0.64l-0.568,0.11l1.33,0.49l0.068,0.42l0.475,-0.03l-0.275,0.3l0.319,0.05l0.099,0.74l2.155,1.74l0.419,0.67l-0.176,0.36l1.735,1.02l-0.322,0.23l1.533,0.26l1.816,1.48l1.714,0.92l0.917,0.12l1.475,1.24l1.437,0.58l0.03,0.31l1.828,0.4l0.897,0.44l-0.144,0.21l0.534,-0.09l2.814,0.84l0.512,0.69l2.482,0.69l0.95,0.89l0.978,0.05l-0.187,0.26l0.81,-0.06l2.166,0.66l0.315,0.35l-0.329,0.19l0.556,-0.1l0.563,0.36l-0.311,0.14l0.804,0.34l2.611,0.53l2.552,1.72l2.743,0.52l-0.22,0.45l0.659,0.27l-0.36,0.07l1.026,0.43l-0.097,0.25l1.925,0.65l0.602,0.69l-0.186,0.21l0.76,0.6l2.121,0.98l1.039,1.27l1.231,0.5l0.193,0.49l0.344,-0.07l0.303,0.8l-0.211,0.22l0.757,0.41l-0.347,0.28l1.366,0.43l0.998,1.52l0.718,0.04l-0.263,0.2l1.393,1.11l-0.05,0.67l1.333,0.66l-0.065,0.31l-0.39,-0.16l0.307,0.32l-0.295,0.07l0.537,0.22l0.956,1.31l0.368,-0.1l0.049,0.58l0.868,0.15l0.257,0.28l-0.376,-0l0.588,-0.09l-0.884,-0.26l-0.777,0.15l-0.231,-0.27l1.068,0.48l-0.658,-0.42l1.083,0.22l-1.019,-0.24l0.545,-0.16l-1.111,-0.02l0.475,-0.41l-0.824,-0.87l-0.21,-0.91l-0.576,-0.32l0.237,-0.3l-1.225,-0.43l-0.35,-1.1l-0.865,-0.44l-0.491,-0.81l-0.474,0.07l-0.015,-0.65l-0.69,-0.99l0.407,-0.18l-1.238,-0.73l-0.15,-0.54l-0.248,0.09l-1.802,-2.37l-0.933,-0.25l0.323,-0.3l-0.584,-1.27l-1.509,-1.26l-0.562,-0.96l0.644,0.1l-0.965,-0.58l0.383,-0.23l-1.427,-0.7l-0.856,-0.02l0.378,-0.41l-0.583,-0.06l0.25,-0.44l-0.338,-0.74l-0.62,-0.37l-0.719,-1.3l-1.07,-0.71l0.172,-0.14l-0.585,-1.06l0.354,-0.23l-0.666,-0.37l0.456,-0.19l-2.107,-0.96l-0.344,-1.23l0.228,-0.15l-0.521,-0.55l0.458,-0.32l-2.297,-1.19l0.31,-0.11l-0.404,-0.24l0.339,-0.29l-0.777,-0.45l0.318,-0.06l0.004,-0.7l-0.881,-1.24l-0.056,-1.14l-1.788,-1.53l0.173,-0.55l-0.449,-0.95l-0.691,-0.38l-0.402,-1.34l0.207,-0.27l-0.903,-0.3l-0.359,-0.93l0.159,-0.58l-0.727,-0.78l-0.563,-0.03l-0.045,-0.79l-0.709,-0.38l0.311,-0.47l-0.25,-0.83l-1.314,-1.08l0.528,-0.08l-0.529,-0.34l0.523,-0.28l-0.8,-0.23l0.701,-0.21l-0.67,-0.09l-1.705,-1.1l0.056,-0.69l-0.441,-0.2l0.374,-0.53l-0.66,-0.69l-0.652,-0.14l0.008,-0.3l-0.539,-0.08l0.213,-0.41l-0.325,-0.08l0.174,-0.43l-0.319,-0.2l0.503,-0.38l-0.927,-0.32l-0.058,-0.42l-0.808,-0.18l0.308,-0.18l-0.916,-0.24l-0.246,-0.8l0.436,-0.13l-1.398,-0.89l-0.898,-0.16l0.083,-0.34l-0.659,-0.17l0.361,-0.11l-0.542,-0.09l0.431,-0.08l-0.565,-0.57l0.175,-0.11l-0.613,-0.13l-1.091,-1.12l-0.596,0.08l-0.995,-0.43l-0.431,-0.64l-1.151,-0.25l-0.1,-0.46l-1.462,0.02l-0.415,-0.17l-0.074,-0.39l-1.332,0.19l0.253,-0.03l-0.175,-0.18l-0.113,0.23l0.236,-0.28l-0.356,0.14l-0.348,-0.32l-1.614,0.33l-0.155,0.2l0.275,0.04l0.307,-0.28l-0.984,0.14l0.233,0.22l-0.41,0.06l0.306,0.17l-0.157,0.18l0.379,-0.05l-0.939,0.25l0.283,-0.2l-0.116,0.2l0.599,0.13l-1.609,0.01l1.303,0.18l-0.291,0.07l0.127,0.16l-0.476,-0.28l0.413,0l-0.337,0.27l0.308,-0.18l-0.333,-0.1l0.212,-0.19l0.652,0.16l-1.156,0.29l0.737,-0.32l0.397,0.17l-0.527,0.19l0.982,-0.56l-0.468,0.03l0.161,0.23l-0.538,0.07l0.053,0.22l-0.062,-0.21l0.669,-0.01l-0.995,0.21l0.483,-0.28l2.173,-0.02l1.392,0.13l0.268,0.16l-1.023,0.08l1.588,0.15l0.296,0.28l-0.276,-0.02l0.871,-0.11l0.118,0.39l1.343,0.9l-0.191,0.18l0.524,-0.07l0.483,0.72l0.62,0.24l0.139,-0.22l-0.132,0.33l0.351,-0.13l-0.328,0.87l1.019,0.45l0.066,0.47l-0.39,0.19l0.491,0.16l-0.523,0.14l1.232,0.16l0.168,0.35l0.174,-0.22l-0.669,0.64l0.891,0.02l-0.456,-0.12l0.101,-0.26l-0.225,0.16l0.408,0.02l-0.764,0.22l0.174,0.18l-0.604,-0.1l0.799,-0.4l0.053,0.19l-0.769,-0.03l0.458,-0.18l0.535,0.12l-1.307,0.16l-1.663,0.93l-0.859,-0.12l0.264,0.19l-0.4,-0.08l0.137,0.32l-0.498,0.43l0.152,0.14l-0.997,0.14l-0.835,0.6l0.249,0.1l-0.581,0.18l0.212,0.21l-0.534,0.01l-0.166,0.37l-0.877,0.12l0.192,0.13l-0.111,-0.19l-0.465,0.65l-0.575,0.06l-0.188,0.39l-0.185,-0.15l-0.242,0.4l0.3,-0.12l-1.179,0.82l0.136,0.29l-0.368,-0.11l-0.09,0.42l-1.443,0.75l0.464,0.16l-0.639,0.07l0.343,0l-0.104,0.31l-0.776,0.57l0.332,0.07l-0.217,0.23l0.883,0.02l-0.835,0.2l0.375,0.02l-0.796,0.31l-0.869,1.07l-0.593,0.21l0.578,0.44l-1.044,0.63l0.836,0.97l-0.902,0.81l0.704,-0.01l-0.706,0.13l-0.635,-0.29l0.962,0.2l-0.302,-0.17l0.311,-0.25l0.269,0.27l-0.337,0.07l0.289,-0.72l1.099,-0.84l0.533,-0.76l-0.237,0.03l0.973,-0.61l-0.052,-0.32l0.944,-0.26l-0.054,-0.41l1.051,-0.44l-0.198,-0.14l0.374,-0.24l-0.337,0.01l-0.022,0.21l0.332,-0.11l0.119,-0.3l-0.636,0.18l1.307,-0.29l-0.536,-0.18l0.714,0.09l0.913,-0.44l-0.711,0.37l0.84,-0.09l-1.363,-0.07l1.441,0.15l-0.418,-0.06l0.411,0.16l-0.46,-0.11l-0.51,0.43l0.41,0.01l0.769,0.84l0.492,1l-0.428,0.16l1.376,1.08l0.473,-0.09l0.25,1.04l0.509,0.01l1.352,1.11l1.42,0.05l2.243,1.66l1.82,0.41l-0.232,0.23l0.411,0.09l-0.143,0.3l0.365,0.24l-0.284,0.16l1.547,0.07l-0.429,-0.2l-0.813,0.29l1.007,-0.03l-0.153,-0.25l-0.502,0.11l0.707,0.08l-0.51,-0.22l0.44,-0.07l-2.071,-0.25l0.18,-0.36l-0.656,-0.13l0.123,-0.47l-1.311,-1.55l-1.725,-0.51l0.154,-0.24l-0.52,-0.54l0.265,-0.2l-0.393,-0.22l0.506,-0.32l-0.74,-0.16l-1.675,-1.23l-0.359,-1.05l0.28,-0.26l-2.271,-1.86l0.312,-0.16l-0.392,-0.24l0.284,-0.04l-0.252,-0.71l-0.701,-0.57l0.529,-0.16l-0.667,0.44l0.478,-0.32l-0.233,-0.16l0.231,0.28l1.806,-0.26l0.666,0.13l0.355,0.51l1.512,0.29l0.636,0.52l-0.425,0.28l0.619,0.1l-0.199,0.22l1.88,0.54l0.674,0.69l-0.147,0.25l2.022,0.88l0.249,0.4l1.04,0.2l-0.42,0.01l0.01,0.23l0.49,0.08l-0.332,0.2l0.231,0.79l0.48,0.38l-0.134,0.26l1.778,0.84l0.65,0.81l-0.244,0.01l0.263,-0.19l-0.641,0.14l1.397,0.08l-0.591,0.04l0.643,-0.17l-0.675,-0.26l-0.487,0.13l0.245,-0.32l-0.368,-0.23l0.147,-1.13l-0.922,-1.3l-0.571,-0.17l-0.44,-1.65l0.264,-0.19l-0.818,-0.24l-0.391,-0.85l-0.338,0.03l-0.562,-0.98l0.201,-0.23l-1.279,-0.95l-0.509,0.07l0.217,-0.37l-0.356,-0.4l0.046,-0.5l-0.785,-0.57l0.401,-0.15l-0.404,-0.13l0.494,-0.2l-1.398,-0.03l0.372,-0.66l-0.906,-0.22l1.019,-0.21l-0.316,-0.05l0.439,-0.17l-0.843,-0.1l0.289,-0.23l-0.255,-0.1l0.515,0.02l-1.32,0.19l1.334,-0.19l-0.803,0.14l0.555,-0.14l-0.733,-0.31l0.355,-0.14l-0.073,-0.51l0.369,-0.3l-0.237,0.14l-0.221,-0.52l0.328,-0.58l-0.339,0.22l-0.268,-0.52l-0.446,0.01l0.248,-0.17l-0.268,-0.19l0.143,-0.32l-0.899,-0.41l0.369,-0.32l-0.257,-0.07l0.107,-0.24l-0.299,0.14l0.47,-0.16l-1.399,0.13l-0.563,-0.52l0.257,-0.11l-1.395,-0.09l0.903,-0.25l-1.555,0l0.489,-0.23l-2.294,0.38l0.175,-0.19l-0.678,0.05l0.387,-0.28l0.484,0.11l-1.593,-0.12l0.059,-0.22l-0.543,-0.17l0.69,0.06l-0.461,-0.24l0.474,-0.13l-1.412,-0.23l0.179,-0.61l-0.336,0.1l-0.486,-0.82l0.282,-0.28l-0.694,0.11l0.075,-0.51l-0.725,-0.28l-1.062,0.17l0.949,-0.35l-3.116,0.2l0.537,0.17l-2.351,-0.11l0.651,-0.08l-1.158,-0.3l-0.424,-0.59l-0.429,-0.05l0.255,-0.03l-0.486,0.14l-0.029,-0.45l-1.933,-1.22l0.328,-0.3l-0.377,-0.01l0.412,0.02l-0.743,-0.13l-0.251,-0.42l0.337,-0.3l-0.385,-0.02l0.382,-0.19l-1.196,-0.05l0.003,-0.28l-0.521,-0.08l-0.115,0.2l0.348,-0.06l-0.011,-0.26l-0.44,-0.06l0.486,-0.31l-1.399,-1.05l-0.33,-0.91l0.227,-0.27l-0.411,-0.1l0.487,-0.18l-0.874,-0.1l-0.796,-1.32l-0.131,-0.42l0.277,-0.27l-1.696,-1.31l-0.114,-0.43l-0.251,0.03l0.174,-0.11l-0.479,-0.01l0.509,-0.18l-0.554,-0.1l0.374,0.04l-0.121,-0.47l-1.563,-2.14l-0.206,-0.62l0.431,-0.19l-2.475,-1.47l0.225,-0.06l-0.7,-1.04l-0.426,-0.14l-2.71,-3.06l-0.313,-0.66l0.266,-0.06l-0.7,-0.09l-0.358,-0.8l-1.279,-0.86l-0.777,-1.24l-1.004,-0.33l0.288,-0.3l-0.244,-0.39l-2.741,-2.78l0.268,-0.01l-0.421,-0.3l0.221,-0.16l-1.808,-0.85l-0.688,-1.08l-0.501,-0.24l0.243,-0.21l-1.43,-0.5l1.158,0.04l-1.309,-0.08l0.245,0.22l0.43,-0.15l-1.792,-0.9l0.991,0.06l-1.352,-0.05l1.269,0.37l-0.248,0.2l1.393,1.23l0.467,0.91l0.551,0.23l3.342,4.14l-0.22,0.17l1.323,1.02l1.77,2.05l0.876,0.75l1.428,0.56l0.903,1.78l5.218,5.71l0.107,0.64l-0.767,-0.05l0.718,-0.33l0.217,0.2l-0.557,-0.13l0.59,-0.21l-1.644,-0.2l-1.579,-2.15l-2.333,-2.14l-0.997,-0.39l-0.496,-0.88l-0.989,-0.37l0.033,-0.31l-1.273,-1.49l0.312,-0.22l-0.73,-0.23l0.526,-0.33l-1.236,-0.13l-0.9,-0.64l0.07,-0.26l-2.05,-1.93l0.206,-0.22l-2.427,-1.58l-0.2,-0.47l-0.873,-0.25l0.24,-0.06l-0.194,-0.26l-0.409,-0.11l-0.741,-1.18l-1.65,-1.4l-0.968,-1.31l-4.001,-3.07l-1.12,-1.87l-2.311,-2.35l0.184,-0.18l-1.751,-1.27l-2.545,-2.96l-2.157,-1.18l0.004,-0.37l-0.973,-0.51l0.244,-0.08l-0.259,-0.45l-0.442,-0.21l-1.549,-2.16l-2.273,-1.89l0.508,-0.2l-1.002,-0.42l0.148,-0.17l-2.995,-2.73l-0.93,-0.43l0.19,-0.1l-0.306,-0.37l-0.708,-0.32l-0.13,-0.52l-1.548,-1.44l-2.404,-1.52l-2.512,-2.45l0.427,-0.24l-1.374,-0.56l-1.984,-1.39l-0.294,-0.64l-1.472,-1.2l-2.197,-1.11l0.266,-0.22l-0.413,-0.28l-0.102,-0.68l-3.476,-2.91l-1.619,-1.88l-0.001,-0.34l-1.935,-1.65l-0.599,-0.1l0.015,-0.56l-0.64,-0.33l-0.155,-0.65l-0.902,-0.97l-0.091,-0.64l-1.983,-2.14l-0.375,-1.08l-0.862,-0.41l-1.477,-1.4l-2.125,-2.9l-2.014,-1.17l-1.318,-1.67l0.116,-0.35l-3.408,-2.63l-0.282,-0.47l0.254,-0.12l-0.601,-0.31l0.166,-0.2l-1.69,-1.03l-0.295,-0.5l-0.988,-0.25l0.243,-0.41l-0.93,-0.19l0.434,-0.44l-1.361,-1.92l-1.585,-1.3l-0.173,-0.42l0.309,-0.18l-1.942,-1.07l0.234,-0.21l-1.311,-0.42l-0.567,-0.48l0.098,-0.45l-0.763,-0.15l0.305,-0.33l-0.348,-0.53l-1.633,-0.82l-0.342,-0.75l-0.895,-0.31l0.111,-0.45l-1.127,-1.53l0.241,-0.22l-0.544,0.08l-0.368,-0.31l-0.208,-0.97l-1.906,-1.4l-0.575,-0.11l0.15,-0.24l-0.387,-0.08l-0.397,-0.89l-2.427,-1.59l-0.953,-1.28l-1.429,-0.49l-1.591,-1.83l-1.212,-0.45l0.097,-0.44l-0.655,-0.69l0.299,-0.24l-1.589,-0.99l-1.126,-1.23l-0.296,-0.82l-1.61,-0.73l0.221,-0.3l-0.542,-0.11l0.219,-0.53l-0.728,-0.95l-0.845,-0.21l-0.044,-0.76l-0.417,-0.24l0.318,-0.12l-0.597,-0.21l0.321,-0.11l-1.824,-0.7l-0.927,-0.78l-0.031,-0.4l-1.518,-0.27l0.102,-0.58l-1.631,-0.68l-0.548,-0.47l0.177,-0.11l-1.408,-0.38l0.544,0.03l-0.385,-0.69l-0.541,-0.23l0.516,-0.12l-0.834,0.04l0.676,0.06l-0.421,-0.09l-0.047,-0.5l-0.569,-0.61l0.321,0.02l-1.296,0.11l0.659,0.03l-0.546,-0.02l0.685,-0.26l-0.512,-0.2l0.913,-0.08l-1.396,0.07l1.279,0.12l-0.567,-0.11l0.711,-0.01l-0.296,-0.14l-0.635,0.15l0.665,-0.09l-0.565,0.15l0.317,-0.17l0.185,0.33l0.598,-0.16l-0.751,-0.08" style="fill:none;fill-rule:nonzero;stroke:#000;stroke-width:4px;"/></g><g><path d="M130.493,120.19l-0.207,0.58l-0.47,-0.09l-0.003,-0.43l0.33,-0.06l-0.408,-0.25l0.06,-0.37l3.68,-2.55l1.85,-0.76l0.802,-1.32l5.164,-3.78l1.452,-1.75l1.146,-0.5l0.215,-0.55l1.364,-1.19l1.726,-1.34l3.607,-1.66l3.882,-2.66l1.688,-1.61l-0.185,-0.17l3.269,-1.73l1.6,-1.46l0.189,-0.55l6.572,-4.68l0.762,-0.74l-0.095,-0.29l3.47,-1.8l3.441,-2.92l4.867,-2.91l1.079,-0.16l3.915,-2.74l0.796,-0.18l1.326,-1.23l3.369,-1.63l0.43,-0.71l2.472,-1.56l2.277,-0.9l6.345,-5.43l2.368,-1.04l-0.266,-0.12l0.458,-0.81l3.192,-2.03l-0.467,-0.27l1.441,-0.54l0.553,-1.09l0.603,-0.48l2.158,-1.12l0.18,-0.8l1.56,-1.8l-0.152,-0.28l0.274,-0.17l-0.228,-0.12l0.54,-0.25l0.256,-0.85l0.655,-0.6l0.149,-1.19l0.522,-0.34l-0.415,-0.64l0.423,-0.56l-0.268,-0.18l0.432,-0.4l0.091,-1.12l-1.111,-2.11l0.146,-0.92l-0.82,-0.37l0.125,-0.43l-0.684,-0.96l-0.564,-0.24l0.262,0.05l-0.223,-0.07l0.272,-0.38l-0.938,-0.61l-0.206,-0.77l-0.995,-0.43l-0.251,-0.83l-0.644,-0.09l-0.529,-0.73l-0.569,0.16l-1.245,-0.95l-1.523,-0.59l-2.042,-0.33l-4.14,0.23l-3.542,0.59l-4.151,1.22l-0.846,-0.28l-5.553,1.99l-3.587,2.26l0.106,0.2l-3.735,2.21l-2.706,2.22l-0.707,0.22l-2.105,2.32l-3.432,1.75l-3.277,3.19l-2.396,1.17l-4.284,4.17l-1.498,0.9l-0.312,0.4l0.154,0.23l-2.668,1.77l-2.633,2.58l-1.174,1.67l-3.39,1.94l-2.297,2.78l-1.216,0.55l-4.14,3.35l-0.849,0.33l-0.462,0.92l-2.698,1.65l-2.835,2.8l-2.299,1.46l-1.705,1.59l-0.325,0.72l-1.32,0.79l-0.465,0.89l0.188,0.23l-1.777,1.39l0.118,0.19l-1.803,0.9l0.209,0.08l-0.808,1.25l-1.253,0.88l-0.626,1.08l-1.931,1.62l0.123,0.47l-0.801,0.22l-0.608,0.85l0.203,0.17l-1.303,0.91l0.232,0.14l-1.917,0.96l0.195,0.13l-0.421,0.18l0.749,0.05l-0.985,0.52l-0.243,0.27l0.337,0.1l-0.893,-0.05l0.586,0.09l-0.827,0.59l-0.341,0.46l0.302,0l-0.788,0.27l0.272,-0.08l-0.524,0.66l0.24,0.19l-0.707,0.39l0.476,-0.29l-1.019,0.08l0.847,-0.03l-0.214,0.24l-0.165,-0.21l0.431,-0.02l-0.334,0.1l0.097,0.39" style="fill:none;fill-rule:nonzero;stroke:#000;stroke-width:4px;"/></g><g><path d="M116.852,130.48l-1.281,0.87l-1.581,0.53l-2.655,2.11l-3.363,2.07l-0.443,0.69l-1.97,1.5l-0.335,0.67l-2.246,1.65l-0.061,0.38l-0.53,-0l-0.183,0.88l-2.614,2.78l-0.655,0.13l0.254,0.46l-0.268,0.48l-1.591,1.69l0.45,-0l-0.118,0.55l-0.296,0.01l0.173,0.73l-0.264,0.07l0.443,0.17l-0.887,0.92l0.233,0.36l-0.292,0.81l-0.466,-0.1l0.715,0.41l-0.555,2.75l0.269,0.72l-0.293,1.78l0.25,0.13l-0.514,0.3l0.47,0.47l-0.07,0.81l-0.246,0.05l0.2,0.37l-0.261,0.02l0.938,0.6l-0.783,0.72l0.254,0.41l-0.299,0.82l-0.277,0.05l0.244,0.23l-0.387,0.01l0.666,0.47l-0.465,0.28l0.135,0.48l-0.454,0.34l-0.064,1.27l-0.163,-0.25l-0.139,0.21l0.393,0.18l-0.198,0.19l0.308,0.12l-0.419,0.2l0.316,0.15l-1.131,0.71l0.262,0.57l-0.258,0.08l0.249,0.09l-0.402,0.22l0.15,0.35l-0.287,0.43l0.437,0.36l-0.94,0.75l0.25,0.6l-0.722,0.46l0.144,0.44l-0.225,-0.03l0.312,0.28l-1.036,0.63l-0.017,0.66l-0.506,0.65l-0.457,0.09l0.177,0.4l-0.311,0.16l0.267,0.47l-0.864,1.2l-0.042,0.55l0.318,0.12l-1.378,0.99l-0.199,0.88l-0.918,0.99l-0.038,0.43l-0.374,0.03l0.278,0.56l-0.697,0.72l0.289,0.23l-0.765,0.47l-0.469,1.28l-0.979,0.44l0.086,0.34l-0.702,0.79l0.265,0.14l-0.918,0.15l-0.134,0.5l-0.871,0.8l0.186,0.14l-2.153,1.07l0.069,0.35l-0.461,0.08l0.167,0.24l-0.393,0.14l0.12,0.22l-1.058,0.67l-0.262,0.66l-0.431,0.14l0.228,0.13l-0.442,0l0.387,0.14l-0.749,0.22l0.307,0.15l-0.977,0.31l-0.393,0.47l-0.626,0.06l-0.888,1.56l-1.526,0.83l0.16,0.26l-0.971,0.36l0.116,0.18l-2.067,1.29l-1.635,0.53l0.03,0.45l-0.53,0.47l-2.079,0.84l-0.648,0.65l-1.2,0.2l0.087,0.21l-0.729,0.09l0.243,0.2l-2.181,0.52l0.341,0.06l-0.416,0.24l-2.324,0.56l-0.229,-0.43l-0.474,-0.1l-0.01,0.21l-1.373,-0.61l0.458,-0.1l-1.226,-0.24l-0.196,-0.49l-1.338,-0.31l0.487,-0.1l-1.258,-0.46l0.063,-0.37l-1.249,-0.32l0.288,-0.1l-0.964,-0.39l0.038,-0.29l-0.647,0.03l0.443,-0.53l-0.4,-0.17l1.217,-1.4l-0.526,-0.4l-0.142,-0.27l0.262,-0.01l-5.194,-1.11l0.425,-0.05l1.018,-2.16l0.937,-0.87l-0.018,-0.33l-0.615,-0.31l0.367,-0.17l-0.679,-0.36l-2.143,-0.1l-1.066,-0.44l1.026,-1.01l-0.253,-0.24l0.292,-0.16l-0.396,-0.11l0.514,0.01l-3.43,-1.26l0.415,-0.11l-0.295,-0.12l0.325,-0.25l-0.168,-0.16l1.023,-0.59l-0.249,-0.42l1.935,-0.87l-0.066,-0.75l0.272,-0.08l-2.487,-0.47l-4.432,0.43l0.493,-0.29l-0.315,-0.05l0.545,0.04l-0.276,-0.52l0.323,-0.8l1.164,-0.9l-0.673,-0.07l-1.521,-1.07l-1.032,-0.02l-2.143,-0.93l0.236,-0.41l-0.258,-0.2l0.664,-0.35l-0.227,-0.19l1.401,-0.93l-0.589,-1l-2.053,-1.08l-0.684,-0.79l1.583,-1.13l0.463,-0.97l-1.282,-0.53l-0.8,-0.9l-1.386,-0.49l0.606,-0.17l-0.561,0.03l0.375,-0.6l-0.283,-0.13l0.991,-0.67l-0.503,-0.47l-1.718,-0.67l-2.452,-0.41l0.476,-0.82l1.824,-1.07l-0.255,-0.35l-0.34,0.15l-1.012,-0.55l-3.181,-0.63l0.986,-0.12l-0.338,-0.14l0.245,-0.53l2.364,-1.52l-0.829,0.25l-4.046,-1.64l0.717,-0.09l-0.415,-0.32l0.808,-0.83l3.033,-2.12l-0.646,-0.44l0.239,-0.03l-2.316,-0.66l0.847,-0.07l-0.513,-0.15l0.25,-0.26l-0.319,-0.16l0.668,-0.34l-0.408,-0.09l1.024,-0.26l-0.475,0.21l-2.692,-1.4l0.584,-0.26l-0.061,-0.56l0.812,-1.01l0.522,-0.14l-3.217,-0.57l0.276,-0.4l-0.236,0.06l0.293,0.03l-0.315,-0.09l2.379,-1.5l0.477,-0.93l-0.159,0.32l0.252,-0.04l-1.661,-0.93l0.321,-0.3l-0.252,-0.03l0.525,0.04l0.359,-1.04l0.682,-0.24l-0.012,-0.31l0.479,-0.23l-0.268,-0.12l0.521,-0.15l-0.351,-0.07l0.525,0.05l-0.592,0.02l0.31,-0.15l-0.202,-0.16l0.434,-0.05l-0.37,-0.06l0.378,-0.63l3.123,-2.27l-0.671,-0.11l0.515,0.38l-0.296,-0.16l0.384,-0.02l-0.559,-0.12l0.545,0l0.248,-0.62l0.37,-0.06l-0.154,-0.31l1.124,-0.43l1.35,-1.28l1.102,-0.32l0.475,-0.74l1.912,-0.87l0.029,-0.5l0.599,-0.43l-0.283,-0.04l0.994,-0.33l1.476,-1.45l1.018,-0.18l0.839,-0.74l-0.372,-0.11l1.039,-0.17l1.524,-0.88l1.101,-0.14l2.086,-0.99l3.761,-0.35l0.464,-0.37l0.652,0.08l1.025,-0.42l1.383,0.21l0.681,-0.35l3.765,0.19l0.832,0.38l1.531,-0.06l2.852,0.62l6.941,0.71l5.033,-0.4l0.593,-0.28l1.685,0.04l0.005,0.22l0.465,-0.4l2.486,-0.24l1.636,-0.76l1.885,-0.27l1.137,-0.58l-0.28,-0.1l1.721,-0.6l0.218,-0.26l-0.262,-0.04l1.475,-0.79l0.749,-0.06l1.797,-1.34l0.288,0.35l0.555,-0.18l-0.268,-0.32l0.434,-0.2l-0.368,-0.16l1.839,-0.68l0.559,-0.6l1.174,-0.5l-0.17,-0.15l1.675,-1.3l1.14,-0.28l0.525,-0.79l0.885,-0.53l-0.444,-0.25l0.519,-0.19l-0.295,-0.17l1.298,-0.33l0.09,-0.39l0.37,0.05l-0.732,-0.05l1.46,-0.86l-0.253,0.27l0.052,-0.22l-0.488,0.01l0.738,0.2l-0.9,-0.11l0.739,0.05l-0.407,0.25l0.423,-0.1l-0.266,-0.07l-1.713,1.68l-1.517,2.17l-4.692,2.23l-1.217,0.95l-1.848,0.54l-0.31,0.62l-1.289,0.55l0.414,0.26l-2.746,1.42l0.22,0.05l-0.328,0.09l0.179,0.21l-1.305,0.9l-0.808,0.46l-0.795,-0l0.643,-0.16l0.001,0.2l-1.392,0.59l0.198,0.22l-1.143,0.11l1.217,-0.06l-1.079,-0.17l0.595,-0.11l0.439,0.16l-0.521,-0.09l0.52,0.16l-0.241,0.07l-0.181,-0.21l-0.004,0.21l0.621,-0.22l-0.45,0.18l-0.09,-0.19l0.365,-0.03l-0.88,0.04l0.469,-0.1l2.612,0.52l0.05,0.25l0.36,-0.26l0.697,0.11l-0.004,0.46l0.441,0.13l-0.235,0.11l0.543,-0.04l1.224,0.9l-0.141,0.23l2.307,0.63l-0.24,0.36l2.654,1.58l-0.151,0.14l0.409,0.15l-0.31,0.04l0.779,0.17l0.89,1.1l0.637,0.16l-0.114,0.29l0.4,0.49l1.358,0.71l0.862,1.45l2.188,2.04l0.463,1.41l-0.207,0.03l0.643,0.54l0.768,0.06l-0.654,0.43l0.476,0.1l-0.325,0.21l0.504,-0.09l-1.518,0.43l-2.403,1.97l-0.529,0.92l0.2,0.28l-0.415,0.13l0.346,0.07l-1.528,1l0.732,0.02l-0.634,0.08l0.459,-0.13l-0.397,-0.05l0.137,-0.19l-0.561,-0.44l0.154,-0.17l-1.605,-1.31l-0.59,-0.15l0.371,-0.15l-0.364,-0.05l0.265,-0.26l-0.591,-0.88l-1.05,-0.54l-0.812,-0.8l0.221,-0.16l-0.712,-0.39l0.288,-0.12l-1.616,-0.72l0.067,-0.23l-0.363,-0.07l0.138,-0.3l-0.512,-0.17l0.092,-0.53l-2.306,-1.41l0.275,-0.39l-1.144,-0.9l-1.122,-1.54l-2.119,-1.16l0.075,-0.42l-1.477,-1.19l-0.133,-0.34l0.231,-0.09l-2.092,-1.03l0.445,-0.03l-0.441,-0.33l0.835,0.02l-1.055,0.05l0.64,-0.11l-0.416,0.2l-0.195,-0.11l0.386,-0.08l-1.148,-0.46l0.562,-0.24l-1.082,-0.36l0.813,0.13l-0.303,0.21l-0.385,-0.19l0.332,-0.25l-0.007,0.41l-0.287,-0.09l0.295,0.22l-0.539,-0.08l0.24,0.07l-0.596,0.69l-0.682,0.12l-1.24,1.17l0.819,-0.09l-1.013,-0.04l0.597,0.09l0.04,0.95l0.592,0.26l-0.182,0.25l1.911,1.23l-0.297,0.77l1.008,1.26l-0.078,0.47l0.864,0.39l-0.195,0.17l1.136,0.34l0.922,1.14l0.482,0.01l0.458,0.49l-0.363,0.33l0.661,0.23l-0.397,0.16l0.496,0.21l-0.386,0.14l1.579,0.71l0.167,0.58l1.404,0.5l-0.31,0.72l0.66,0.13l0.422,0.84l-0.237,0.14l0.679,0.44l-0.417,0.09l0.314,-0.09l0.896,0.65l-0.04,0.25l0.624,0.22l-0.228,0.03l0.103,0.77l1.081,0.36l-0.224,0.31l2.06,1.62l-0.443,0.01l0.545,-0l-0.431,0.13l0.777,0.35l0.361,0.53l-0.282,-0.03l1.259,0.43l-0.256,0.47l0.81,0.36l-0.765,0.63l1.17,0.67l0.318,0.41l-0.104,0.43l0.795,0.42l-0.592,0.54l0.889,-0.04l-1.056,0.05l0.714,0.06l-0.273,0.05l0.006,-0.31l0.506,-0.03l-0.963,0.11l0.668,-0.06l-0.424,-0.74l-0.394,0.22l0.79,0.02l-0.599,0.03l0.391,0.11l-0.606,0.09l0.131,0.4l-0.734,0.3l0.368,0.04l-0.069,0.62l0.373,0.57l-1.569,3.03l0.154,0.39l-0.486,0.33l-0.515,1.35l-0.459,0.09l0.507,0.55l-0.2,1.21l-0.292,0.07l-0.393,1.51l-0.726,0.96l0.079,1.23l-0.607,0.47l0.489,0.47l-0.904,0.69l-0.461,0.79l0.25,0.27l-0.577,0.39l0.117,0.37l-1.645,1.52l0.323,0.34l-0.401,0.18l-0.194,1.02l-0.983,0.94l0.246,0.23l-1.414,1.06l-0.303,0.66l-0.535,0.15l0.143,0.25l-1.685,1.61l-0.244,0.6l-1.174,0.29l0.293,0.3l-1.898,1.02l-0.838,0.97l0.069,0.51l-2.677,1.72l-0.834,0.87l0.33,0.15l-0.683,0.27l0.317,0.14l-1.988,0.88l0.127,0.28l-0.482,0.06l-0.318,0.37l0.244,0.05l-0.867,0.16l0.221,0.21l-0.362,-0.12l0.827,-0.24l-0.302,-0.1l0.584,-0.38l0.601,-1.94l0.758,-0.49l-0.155,-0.34l1.466,-0.93l1.997,-2.86l1.48,-1.18l0.892,-1.33l0.772,-0.31l0.216,-0.65l1.848,-1.87l0.837,-1.38l1.4,-1.08l0.325,-0.88l0.704,-0.42l-0.517,-0.24l1.122,-0.51l0.937,-1.67l0.666,-0.26l-0.23,-0.11l0.142,-1.29l0.731,-1.45l0.58,-0.48l-0.183,-0.96l1.183,-1.14l-0.216,-0.93l0.294,-0.39l-0.261,-0.34l1.082,-1.16l0.069,-1.58l0.713,-1.56l0.463,-0.26l-0.444,-0.54l0.285,-1.68l-0.477,-0.07l0.908,0.13l-0.511,-0.17l-0.083,0.29l-0.612,0.13l0.179,0.48l-0.507,0.41l-0.208,1.09l-0.567,0.57l-0.356,1.95l-2.256,2.73l0.285,-0.03l-0.164,-0.17l0.686,0.23l-0.804,0.17l-1.46,1.38l-0.962,0.31l-0.676,1.71l-2.527,2.36l-0.778,1.22l-1.551,1.34l0.176,0.13l-1.024,0.29l-0.608,1.01l-3.352,2.57l-0.523,0.11l-0.198,0.94l-0.747,0.33l0.307,0.24l-2.712,1.29l-2.082,1.69l0.225,0.26l-0.894,0.31l-2.159,1.7l-0.55,0.03l0.313,0.19l0.393,-0.44l0.433,0.11l-0.592,-0.04l0.882,-0.63l0.159,-0.9l0.762,-0.39l2.097,-2.94l0.977,-0.71l-0.137,-0.51l6.658,-6.24l1.484,-1.83l0.246,-0.75l0.682,-0.34l1.555,-2.15l2.429,-2.4l0.953,-1.59l-0.436,-0.29l0.909,-0.43l-0.376,-0.21l1.037,-0.49l0.819,-0.94l1.224,-3.37l0.482,-0.29l-0.041,-0.49l0.7,-0.14l-0.345,-0.36l0.386,-0.19l-0.208,-0.44l-0.386,-0.16l0.568,-0.52l-0.377,-0.08l0.562,-0.22l-0.041,0.29l-0.077,-0.56l0.409,-0.12l0.038,-0.42l-0.367,0.04l-0.071,0.46l-2.25,2.61l-2.569,2.17l0.147,0.17l-1.226,0.39l-4.155,2.7l-5.238,4.73l-2.826,1.23l-0.435,0.66l-3.979,2.49l0.136,0.18l-2.179,0.96l0.001,0.45l-0.667,0.21l0.3,0.34l-2.236,1.22l-0.568,-0.11l0.943,-0.02l5.046,-5.12l2.303,-1.31l1.311,-1.23l2.589,-1.65l3.822,-3.08l2.074,-2.44l2.721,-1.78l0.322,-0.63l0.625,-0.29l0.075,-0.65l1.68,-2.07l-0.321,-0.37l1.088,-0.67l-0.359,-0.21l1.148,-0.4l-0.1,-0.23l0.838,-0.49l0.289,-0.97l1.38,-1.06l-0.059,-0.39l0.438,-0.02l-4.134,1.97l-5.698,1.02l-5.014,1.85l-6.406,3.71l-3.282,1.21l-4.195,2.85l-0.138,0.37l-4.401,2.1l-1.152,0.77l0.043,0.3l-1.215,0.6l0.26,-0.14l-0.398,-0.09l0.436,-0.11l0.697,0.13l-0.332,-0.14l-0.292,0.27l0.388,-0.57l0.778,-0.14l-0.014,-0.3l1.432,-1.02l6.757,-3.97l4.198,-2.86l0.323,-0.61l2.254,-1.08l2.012,-1.61l1.024,-0.38l4.865,-3.46l-0.226,-0.18l0.874,-0.35l-0.15,-0.3l0.707,-0.29l-0.209,-0.11l1.184,-0.32l1.309,-0.94l0.378,-0.81l0.491,0.12l-0.627,0.1l-0.536,-0.2l0.443,-0.18l-0.678,-0.23l-2.034,-0.24l-3.508,0.78l-5.943,1.99l-5.447,1.04l-10.107,3.69l-4.958,2.44l-0.358,-0.12l0.846,-0.11l-0.351,-0.12l0.228,-0.31l2.633,-1.34l3.751,-1.3l5.919,-2.94l4.019,-1.28l4.142,-1.92l1.234,-0.88l3.242,-1.08l2.638,-1.91l-0.046,-0.25l1.4,-0.6l-2.46,-0.52l-8.481,0.8l-7.492,1.71l-4.823,2.06l-2.413,0.28l-0.143,0.39l-3.826,1.43l2.007,-1.22l6.645,-2.48l4.094,-2.16l4.646,-1.75l7.356,-1.95l2.437,0.2l1.064,-0.23l-0.229,0.21l-0.072,-0.37l-2.589,-0.61l-5.304,-0.37l-8.756,0.97l-12.593,2.36l-3.225,1.32l-2.485,0.6l0.304,0.05l-0.807,0.28l0.233,0.08l-0.222,0.44l0.074,-0.26l0.388,0.06l-0.873,-0.24l0.559,0.14l8.812,-4.14l5.064,-1.41l6.482,-0.57l7.268,0.4l3.9,-1.21l0.605,0.07l-0.844,0.07l-0.109,-0.31l-0.585,-0.12l-0.105,-0.44l-0.906,-0.32l-5.196,-0.94l-2.617,-0.26l-7.439,0.31l-9.63,1.66l-3.284,1.31l-2.218,0.37l-0.629,0.72l-1.412,0.52l-1.8,1.61l-1.924,0.46l0.372,-0.03l0.006,0.4l-1.031,0.38l0.088,0.35l-0.035,-0.24l-0.431,0.16l2.307,0.24" style="fill:none;fill-rule:nonzero;stroke:#000;stroke-width:4px;"/></g><g><path d="M102.208,133.44l-0.101,-0.38l-0.443,-0.09l0.42,-0.11l-0.34,0.02l2.607,-1.03l2.227,-1.73l0.746,-0.16l0.099,-0.37l0.65,-0.15l1.909,-1.74l0.253,-0.53l1.735,-0.6l-0.375,0.09l0.207,0.19l-0.343,0.67" style="fill:none;fill-rule:nonzero;stroke:#000;stroke-width:4px;"/></g><g><path d="M126.865,117.91l0.901,-0.16l-1.117,0.23l0.317,-0.3l-0.328,-0.1l0.148,-0.18l-0.195,0.2l-0.456,-0.2l0.796,-0.06l-0.146,-0.23l1.174,-0.85l0.153,-0.57l0.767,-0.08l-0.236,-0.04l0.404,-0.23l-0.155,-0.25l3.42,-1.55l0.229,-0.61l2.486,-1.39l0.344,-0.62l1.547,-0.87l0.364,-0.35l-0.174,-0.13l1.131,-0.37l1.138,-1.05l2.365,-1.17l-0.102,-0.23l0.775,-0.53l-0.228,-0.14l0.814,-0.57l2.406,-1.09l0.27,-0.35l-0.159,-0.26l1.812,-1.02l0.091,-0.39l0.627,-0.13l-0.177,-0.11l0.437,-0.23l-0.065,-0.26l0.738,-0.58l5.596,-3.04l1.863,-1.61l0.492,-0.09l0.282,-0.51l-0.234,-0.08l3.05,-1.97l0.491,-0.84l2.587,-1.2l0.063,-0.42l0.705,-0.27l1.339,-1.32l0.689,-0.07l2.954,-2.84l2.408,-1.12l0.971,-1.1l1.507,-0.56l4.912,-3.53l2.071,-0.78l3.274,-2.01l0.53,-0.47l-0.404,-0.14l4.102,-2.12l1.812,-1.66l0.594,-0.08l0.066,-0.58l0.605,-0.08l1.314,-1.55l1.962,-1.03l0.36,-0.66l1.585,-0.98l-0.087,-0.31l1.478,-0.69l0.79,-0.94l1.585,-0.66l1.5,-1.55l1.75,-0.85l-0.251,-0.22l0.678,-0.07l-0.672,-0.25l0.603,-0.1l-0.384,-0.22l0.614,-0.1l2.934,-1.98l2.288,-2.86l0.532,-0.23l-0.036,-0.6l1.443,-1.57l0.168,-0.74l-0.3,-0.2l0.399,-0.37l0.205,-1.44l0.293,-0.24l-0.775,-1.03l-0.173,-0.58l0.242,-0.19l-0.644,-1.31l-0.466,-0.16l0.37,-0.21l-0.312,-0.12l0.437,-0.36l-0.245,-0.16l0.737,-0.59" style="fill:none;fill-rule:nonzero;stroke:#000;stroke-width:4px;"/></g></svg>