<?xml version="1.0" encoding="UTF-8" standalone="no"?><!DOCTYPE svg PUBLIC "-//W3C//DTD SVG 1.1//EN" "http://www.w3.org/Graphics/SVG/1.1/DTD/svg11.dtd"><svg width="100%" height="100%" viewBox="0 0 256 256" version="1.1" xmlns="http://www.w3.org/2000/svg" xmlns:xlink="http://www.w3.org/1999/xlink" xml:space="preserve" xmlns:serif="http://www.serif.com/" style="fill-rule:evenodd;clip-rule:evenodd;stroke-linecap:round;stroke-linejoin:round;"><rect id="Artboard11" x="0" y="0" width="255.746" height="255.746" style="fill:none;"/><g><path vector-effect="non-scaling-stroke" d="M72.758,203.49l-0.622,0.17l0.428,0.43l0.149,-0.83l-0.054,1.14l0.176,-0.27l0.111,0.47l0.092,-0.28l-0.029,0.22l1.721,0.76l2.029,1.64l1.097,0.47l0.208,-0.3l0.393,0.51l0.204,-0.22l1.153,1.38l0.62,-0.35l0.242,0.58l0.937,-0.66l0.679,0.29l0.285,-0.21l1.619,1.28l0.741,-0.05l0.3,0.56l0.838,-0.75l0.629,0.43l0.355,-0.83l0.359,0.8l0.224,-0.46l0.114,0.53l0.701,0.54l1.823,0.52l0.637,-0.18l1.403,0.25l0.242,0.39l1.157,-0.12l0.332,0.41l1.109,-0.56l1.915,0.31l0.369,-0.32l1.296,0.49l2.037,-0.25l0.764,0.39l0.483,-0.14l0.27,0.37l0.685,-0.33l0.272,0.61l0.382,-0.52l0.261,0.39l1.055,-0.75l0.183,-0.75l0.456,0.9l2.357,-0.34l0.225,-0.44l0.154,0.29l1.103,-0.12l0.261,0.23l0.366,-0.31l0.286,0.66l0.189,-0.54l0.218,-0.15l0.233,0.32l1.619,-1.35l0.492,0.21l0.2,-0.37l0.41,0.04l0.285,0.45l0.749,-0.85l0.953,-0.4l0.213,-0.59l0.207,0.33l0.191,-0.49l0.308,0.39l0.346,-0.29l0.635,0.35l0.539,-0.91l1.721,-0.87l0.585,-1.01l0.254,0.12l0.193,-0.56l0.086,0.21l0.118,-0.55l0.429,0.3l1.081,-1l0.89,-1.36l0.199,-0.18l0.076,0.36l0.557,-1.26l0.103,0.26l0.378,-3.12l0.26,-0.78l0.209,0.17l0.531,-0.84l1.314,-5.45l1.392,-10.69l-0.028,-9.75l-0.231,-0.83l0.4,-1.72l-0.164,0.25l-0.42,-3.29l0.479,-16.32l-0.393,-4.55l0.31,-1.94l-0.134,-2.36l-0.58,-2.49l-0.12,0.58l0.128,-0.76l-0.481,-1.7l-0.88,-1.49l-0.07,0.51l-1.293,-3.63l-0.299,0.24l0.166,-0.2l-0.58,-0.97l-0.001,0.48l-0.206,-0.4l-0.113,0.6l-0.374,-1.33l-0.25,0.45l-0.777,-2.3l0.072,0.49l-0.219,0.19l-0.175,-0.24l-0.027,0.27l-0.714,-1.16l-0.334,0.01l-0.055,0.36l-1.574,-2.18l-0.245,0.3l-0.656,-0.4l-0.04,-0.34l-0.224,0.16l-0.219,-0.9l-0.285,0.48l-0.508,-0.33l-0.274,0.59l-0.012,-0.35l-0.988,-0.7l-0.474,0.76l-0.467,-1.68l-0.3,0.34l-0.001,-1.04l-0.096,0.72l-0.162,-0.71l0.043,0.39l-0.279,0.32l-0.036,-0.63l-0.283,0.99l-0.689,-0.83l-0.044,0.63l-0.219,-0.41l-0.092,0.48l-0.339,-1.57l-0.063,0.73l-0.264,0.25l-0.183,-0.41l-0.012,0.39l-0.04,-0.39l-0.067,0.54l-0.3,-1.29l-0.056,0.5l0.021,-0.54l-0.011,0.4l-0.537,0.27l-0.549,-1.23l-0.107,1.03l0.11,-0.25l-0.185,-0.13l-0.086,0.45l-0.315,-0.69l0.02,0.76l-0.422,-0.96l0.146,-0.29l-0.219,0.49l-0.345,-0.83l-0.074,0.42l0.053,-0.81l-0.1,0.89l-0.362,-0.64l-0.15,0.34l-0.165,-0.99l-0.101,0.42l-1.236,-1.06l-0.213,-0.91l-0.144,0.71l-0.277,-2.2l-0.114,0.4l0.006,-0.77l-0.045,0.51l-0.253,-0.25l0.18,-0.38l-0.26,-1.04l-0.026,0.72l-0.218,-2.23l0.292,-0.25l0.023,-2.38l0.423,-0.94l-0.171,-0.97l0.213,-1.45l-0.1,1.16l-0.026,-0.5l0.063,0.72l0.168,-0.55l-0.232,-0.28l0.014,0.78l0.23,-0.43l-0.177,-0.47l-0.018,0.71l-0.133,-0.58l0.249,0.31l-0.167,0.34l0.026,-1.23l-0.001,1.15l-0.465,-1.93l0.19,0.46l-0.096,-0.19l-0.12,0.37l-0.147,-0.14l0.28,-0.1l-0.021,0.5l0.019,-0.87l0.37,0.15l0.244,-0.7l0.637,0.48l0.788,-0.05l0.862,-0.71l0.206,-0.69l0.582,0.42l0.08,0.5l0.238,-0.24l-0.11,0.44l0.193,-0.56l0.136,0.47l0.567,-1.12l0.469,0.18l0.078,0.5l0.136,-1.17l0.246,0.46l0.065,-2.61l-0.354,-0.61l-0.028,0.76l-0.14,-2.58l-0.004,1.3l-0.122,-0.66l-0.073,0.44l-0.08,-2.47l-1.036,-2.6l0.204,0.18l-0.06,-0.87l-0.096,1.49l0.045,-1.87l0.044,0.67l-0.179,-0.2l-0.191,0.43l-0.517,-1.21l-0.075,0.66l-0.252,-0.92l0.238,-0.46l-0.049,0.43l-0.368,-0.41l0.108,0.55l-0.393,-0.52l-0.021,0.48l-0.116,-1.01l-0.243,-0.32l-0.141,0.21l-0.054,-0.55l-0.414,0.52l-0.958,-0.64l-0.181,-0.45l-0.254,0.11l-0.213,-0.65l-0.244,0.32l-0.006,-0.46l-0.047,0.47l-0.493,0.17l-0.278,-0.31l-0.249,0.22l-1.424,-1.23l-0.125,0.24l-0.514,-0.25l-0.284,0.43l-0.581,-0.5l-0.444,0.28l-1.216,-0.7l-0.181,-0.55l-0.478,0.3l-0.256,-0.52l-0.193,0.37l-1.365,0.36l-1.401,-0.42l-0.884,0.12l-0.298,0.44l-0.644,-0.37l-0.362,0.49l-0.92,-0.43l-0.428,0.56l-0.195,-0.37l-0.734,-0.23l-0.997,0.06l-0.326,-0.61l-0.608,0.42l-0.247,-0.62l-0.193,0.61l-0.232,0.27l-0.209,-0.27l-0.452,0.66l-0.942,0.18l-0.66,-0.25l-0.461,0.26l-0.347,-0.32l-0.276,0.4l-0.589,-0.05l-0.191,0.54l-0.426,-0.28l-0.238,0.7l-0.115,-0.33l-0.619,-0.11l-0.327,0.68l-0.942,-0.92l-0.753,0.83l-0.2,-0.2l-0.363,0.67l-0.507,-0l-0.399,-0.42l-1.138,0.84l-0.216,-0.3l-0.83,1.52l-0.489,-0.18l-0.024,0.51l-0.497,0.08l-0.036,-0.25l-0.377,0.53l-0.007,-0.42l-0.186,1.09l-0.692,0.22l0.274,0.04l0.037,0.35l-0.263,-0.2l0.194,0.89l0.153,-0.46l-0.356,-0.88l-0.298,0.37l0.113,0.3l0.125,-0.78l-0.136,0.46l0.305,0.41l-0.033,0.63l-0.439,0.37l0.29,0.78l-0.223,-0.33l0.184,-0.91l-0.011,1.5l0.184,-0.35l0.257,1.09l0.1,-0.33l0.325,1.07l0.219,-0.13l0.349,0.88l0.197,-0.21l0.002,0.54l0.399,-0.79l0.081,0.6l0.105,-0.76l0.177,1.12l0.137,-0.66l0.435,1.14l0.674,0.22l0.106,0.48l0.306,-0.19l0.074,0.84l0.581,-1.29l0.134,0.35l0.051,-0.82l0.157,0.83l0.073,-0.35l0.576,0.82l0.294,-0.37l0.236,0.78l0.167,-0.75l0.707,0.26l0.665,-0.24l0.074,0.59l-0.087,-0.53l0.465,0.08l0.416,0.71l0.262,-0.6l-0.211,-1.05l0.254,0.77l-0.011,-0.6l-0.126,1.98l0.052,-1.88l-0.257,0.64l0.185,0.55l-0.201,-0.24l0.02,0.48l0.07,-0.79l-0.184,0.38l0.197,0.43l-0.346,-0.46l0.275,-0l-0.037,0.65l0.131,-1.59l0.006,0.84l-0.319,0.3l0.169,0.52l-0.133,-0.41l-0.92,1.52l-0.105,1.28l0.087,0.21l0.085,-0.34l0.088,0.67l-0.15,-0.56l-0.19,0.17l0.142,0.32l0.117,-0.42l0.103,1.42l-0.016,-0.96l0.16,2.64l-0.245,-0.09l0.3,0.52l-0.251,0.73l0.252,0.73l0.056,-0.73l0.135,1.35l-0.134,4.73l-0.578,0.68l-0.108,1.37l0.131,-0.69l-0.101,0.24l-0.308,-0.4l-0.134,0.35l-0.135,-0.76l0.019,0.91l-0.65,1.42l-0.575,0.23l0.005,-0.39l-0.128,0.46l-0.089,-0.26l-0.289,0.35l-0.418,1.69l-0.174,-0.29l-0.677,0.54l-0.704,1.48l-0.104,-0.29l-0.233,0.52l-0.063,-0.4l-0.352,1.07l-1.409,2.05l-0.544,1.83l-0.433,-0.03l-0.715,1.15l-0.238,-0.18l-0.393,1.14l-0.132,-0.36l-0.99,2.89l-0.352,0.07l-0.666,1.14l-0.597,2.46l-0.139,-0.39l-0.088,0.7l-0.447,0.03l-0.68,1.69l-0.054,-0.37l-0.278,1.96l-0.772,1.92l-0.507,3.6l-0.146,2.89l-0.561,2.87l0.215,6.59l-0.433,2.22l0.179,3.66l-0.328,1.1l0.141,2.83l-0.656,10.75l0.434,3.56l-0.318,2.2l0.152,7.08l-0.306,3.77l0.186,0.72l0.15,-0.44l0.145,0.28l0.587,4.08l0.221,0.5l0.412,0.06l0.235,0.76l0.216,-0.8l0.154,1.56l0.406,0.92l0.912,0.89l0.112,-0.28l0.151,1.47l-0.072,-0.3l0.155,0.33l0.188,-0.31l0.679,-0.06l0.127,1.02l-0.058,-0.51l0.211,-0.44l0.09,0.33l0.184,-0.71l0.139,1.04l0.327,0.49l0.127,-0.31l-0.022,0.46l0.005,-0.34l0.058,0.25l0.507,-0.03l0.02,-0.24l0.042,0.32l0.059,-0.33l-0.347,0.24l0.228,0.34l0.044,-0.25l-0.012,0.54l0.038,-1.41l-0.26,0.81l0.152,0.18l0.122,-0.48l0.124,0.23l-0.057,-0.57l-0.147,1.37l0.123,-0.9l0.535,0.46l0.105,0.53l0.335,-0.49l0.122,0.27l0.118,-0.55l0.089,0.78l1.219,0.91l0.272,-0.15l0.035,0.51l0.053,-0.24l0.691,-0.04l0.258,0.43l0.135,-0.51l0.289,0.91l1.323,0.21l0.568,1.36l0.156,-0.6l0.133,1.01l0.355,-0.82l0.168,0.37l0.394,-0.67l0.366,0.24l0.169,-0.71l0.466,1.29l0.675,0.07l0.17,0.37l0.507,-0.39l0.481,0.29l0.285,-0.55l0.428,0.6l0.22,-0.38l0.587,1.05l0.577,0.28l0.332,-0.2l0.14,0.43l0.172,-0.27l0.918,-0.05l1.006,0.93l0.289,-0.73l0.309,0.35l0.125,-0.24l0.897,0.77l1.023,-0.09l0.137,0.38l0.967,0.04l0.226,0.73l0.055,-0.35l0.266,-0.21l0.178,0.28l0.564,-0.76l0.379,0.37l0.102,-0.66l0.189,0.83l0.182,-0.51l-0.022,0.34l0.845,0.73l1.199,-0.05l0.116,-0.23l0.154,0.25l0.532,-0.12l0.241,0.52l0.322,-0.24l0.233,0.99l0.199,-0.67l0.198,0.27l1.411,-0.92l0.459,0.36l0.259,-0.43l0.363,0.89l1.257,-0.12l0.516,-0.68l0.411,0.37l0.248,-0.36l1.168,0.75l1.876,-0.66l0.322,0.28l0.313,-0.16l0.212,0.41l0.966,-1.06l0.238,0.17l0.205,-0.79l0.428,1.11l0.402,0.16l0.241,-0.33l0.047,0.29l0.484,-0.55l0.066,0.67l0.197,-0.52l0.138,0.58l0.405,-0.64l0.081,0.37l0.361,-0.78l0.345,-0.04l0.108,-0.66l0.163,0.47l0.051,-0.78l0.101,0.79l0.677,0.12l0.464,-0.55l0.478,0.42l0.324,-0.27l0.169,0.5l0.042,-0.52l0.673,-0.85l0.945,0.38l0.64,-0.94l0.548,0.24l0.714,-0.85l0.687,-0.39l0.075,0.25l0.246,-0.4l0.076,0.24l0.567,-1.75l0.32,0.51l0.099,-0.63l0.22,1.05l0.872,-1.88l0.098,0.24l0.159,-0.41l0.122,0.72l0.97,-3.24l0.063,0.59l0.078,-0.71l0.101,0.46l0.645,-0.99l0.599,-0.29l0.959,-3.58l0.52,-3.64l-0.132,-1.62l0.374,-2.69l-0.197,-1.66l0.578,-3.24l-0.056,-3.71l0.399,-2.83l-0.022,-5.02l0.405,-1.37l0.187,-6.35l0.202,-0.52l0.066,0.37l0.302,-1.84l-0.491,-10.71l0.027,-7.58l-0.44,-5.68l-0.41,-1.07l-0.584,-4.37l-0.204,-0.4l-0.138,0.15l-0.152,-0.79l-0.413,0.73l-1.052,-2.52l-0.166,0.36l-0.361,-0.17l-0.061,0.36l-0.162,-0.33l-0.134,0.29l-0.39,-0.74l-0.312,-0.22l-0.148,0.27l-0.179,-0.52l-0.088,0.2l-0.22,-0.36l-0.137,0.15l-0.63,-1.14l0.07,0.28l-0.682,0.13l-1.16,-0.89l-0.244,1.2l0.028,-1.25l-0.329,-1.22l-0.241,0.74l-0.094,-0.98l-0.055,0.51l-0.554,0.46l-1.786,-0.66l-0.076,-0.41l0.028,0.63l-0.222,-0.53l-0.131,0.47l-0.81,-1.81l-0.044,0.31l-0.901,0.24l-0.522,-1.15l-0.586,-0.1l-0.141,0.38l-0.844,-1.24l-0.23,0.57l-0.605,-0.86l-0.205,-1.1l-0.199,0.5l0.022,-0.82l-0.532,0.62l0.114,0.38l-0.271,-0.46l-0.048,0.36l-0.241,-1.14l-0.291,0.13l-0.306,-0.37l0.032,0.51l-0.27,-0.84l-0.18,0.75l0.097,-0.77l-0.472,-1.79l-0.168,-0.28l-0.264,0.23l-0.051,-0.82l-0.255,0.41l-0.135,-1.04l-0.138,0.54l-0.035,-0.3l-0.057,0.25l-0.737,-0.68l-1.122,-2l-0.737,-4.91l0.185,-1.19l-0.07,0.25l0.147,-0.35l0.082,0.28l0.225,-0.6l0.083,-1.92l0.478,0.57l-0.163,-0.66l0.415,-2.01l0.165,-0.13l0.152,0.39l0.224,-1.99l0.21,0.14l0.063,-0.49l0.182,0.2l0.307,-0.59l0.422,-1.44l-0.127,-0.56l0.057,1.55l-0.273,-1.49l-0.259,0.47l-0.233,-0.72l-0.461,0.61l-0.671,0.1l-0.631,0.57l-1.15,-0.11l-0.636,-0.6l-0.93,-0.03l-0.489,-0.64l-0.12,0.3l-0.505,0.04l-0.104,-0.31l-0.16,0.68l-0.13,-0.24l-0.609,0.24l-0.34,-0.2l-0.317,0.45l-0.989,-0.44l-1.032,0.04l-1.141,0.53l-1.505,-0.38l-0.553,0.21l-0.232,0.87l-0.007,-0.37l-0.868,-0.61l-0.376,0.48l-0.584,-0.1l-0.293,0.31l-0.338,-0.2l-0.047,0.34l-0.311,-0.39l-0.211,0.49l-0.653,-1.04l-0.204,0.29l-0.131,-0.85l-0.267,0.96l-0.191,-0.58l-0.394,0.89l-0.612,0.05l-0.663,-0.43l-0.426,0.33l-0.476,-0.2l-0.221,0.54l-0.218,-0.54l-0.196,0.92l-0.599,-1.97l-0.205,0.59l-0.068,-0.53l-0.067,0.3l-0.7,0.15l-0.401,-0.89l0.075,0.61l-0.393,-0.54l0.012,-0.56l0.277,0.14l-0.012,-0.46l0.182,0.16l0.985,-0.73l0.236,0.27l0.484,-0.54l0.245,0.53l0.838,-1.01l0.356,0.09l0.9,-1.56l0.553,-0.26l0.348,-1.38l0.239,0.77l0.138,-0.97l0.095,1.22l0.203,-0.17l0.75,0.53l1.948,-0.22l0.883,0.66l0.451,-0.2l0.3,0.68l0.356,-0.56l0.174,0.54l0.95,-1.53l0.276,0.35l0.172,-0.37l0.369,0.5l0.204,-0.41l0.885,0.42l2.298,-0.42l0.244,0.36l0.479,-0.19l0.164,0.32l1.034,-0.11l0.391,0.32l0.126,-0.25l0.116,0.47l0.396,-0.15l0.208,0.57l0.236,-0.49l0.205,0.46l-0.28,0.17l0.043,0.78l0.127,-0.57l-0.278,-0.45l-0.037,1.27l0.062,-0.54l-0.638,-1.02l-0.862,0.7l-0.121,-0.63l-0.322,-0.16l-0.15,0.62l-0.753,0.42l-0.483,-0.33l-0.474,0.47l-2.237,0.65l-3.506,0.12l-0.213,0.45l-0.529,-0.19l-0.243,0.41l-0.393,-0.48l-0.426,0.2l-0.412,-0.41l-0.33,0.16l-0.552,-0.29l-0.283,-0.61l-0.774,0.32l-0.31,-0.73l-0.551,0.14l-1.915,-0.62l-0.482,-0.61l0.271,1.02l0.189,-0.46l-0.215,-0.39l0.432,-0.28l0.851,0.28l0.331,-0.34l0.903,0.17l1.103,-0.53l0.76,0.06l0.433,-0.45l0.171,0.31l0.626,0.11l0.455,-0.69l0.738,0.81l2.59,0.31l0.319,0.43l3.329,-0.92l0.531,0.17l0.241,0.65l0.583,-0.2l0.227,0.93l0.352,-0.62l0.58,0.15l0.257,-0.28l0.458,0.91l0.233,-0.51l0.355,0.47l0.126,-0.52l0.133,0.48l0.583,0.25l0.21,0.61l-0.279,0.31l0.758,0.45l0.593,1l-0.312,0.92l0.118,1.05l-0.167,-0.35l-0.228,0.49l-0.057,1.96l-0.135,-0.67l-0.093,0.79l0.064,-0.97l0.029,2.24l-0.304,0.63l0.043,1.08l-0.09,-0.43l-0.029,2.18l0.551,2.13l0.035,-0.52l0.198,2.9l-0.193,-1.14l0.065,1.38l-0.339,1.24l-0.024,-0.28l-0.519,0.49l-0.009,-0.48l-0.114,0.55l0.314,0.27l-0.437,0.23l-0.071,-0.45l-0.768,1.95l0.036,-0.46l-0.282,-0.1l-0.259,0.62l-0.306,-0.8l-0.458,0.35l-0.145,-0.33l-1.074,1.76l-0.671,-0.95l-0.154,0.5l-0.162,0.14l-0.177,-0.46l-0.447,0.84l-0.905,0.5l-0.217,0.45l-0.789,-0.35l-0.836,0.61l-0.264,-0.3l-0.174,0.35l-0.647,-0.58l-0.318,0.08l-0.189,-0.43l-0.303,0.19l-0.105,-0.45l-0.168,0.54l-0.197,-0.15l-0.375,0.41l-1.944,-0.13l-0.298,0.6l-0.442,-0.53l-0.087,0.28l-0.297,-0.77l-0.165,0.39l-0.01,-0.92l0.05,1.56l0.209,-0.55l0.023,0.51l0.143,-0.53l0.104,0.33l0.771,-0.45l0.916,0.23l0.512,-0.31l1.077,0.66l2.633,-0.11l0.315,0.33l0.781,-0.55l0.359,0.34l0.312,-0.72l0.362,0.77l0.26,-0.47l0.654,0.72l1.201,0l1.663,-0.79l0.64,0.01l0.03,0.48l-0.004,-1.18l-0.144,1.51l0.068,-2.06l-0.146,0.71l0.193,0.3l0.112,-0.36l0.012,0.72l-0.172,-0.47l-0.211,0.27l0.116,-0.32l0.244,0.51l-0.087,0.89l-0.112,-1.14l0.332,0.02l-0.113,0.41l-0.12,-0.76l0.019,0.71l0.031,-0.35l0.347,0.98l0.477,0.08l0.187,1.01l0.048,-1.34l0.027,0.8l0.008,-0.72l0.564,1.8l1.1,1.02l0.276,1.13l0.423,-0.04l0.138,0.97l0.33,-0.39l0.204,1.04l-0.017,-0.5l0.345,-0.49l0.329,0.37l0.02,-0.53l0.013,0.5l0.231,0.29l0.072,-0.4l0.006,0.48l0.73,0.74l0.151,0.6l0.476,-0.16l0.288,0.23l0.176,-0.31l0.776,1.18l0.581,0.04l0.188,0.48l0.553,-0.51l0.583,0.61l2.176,0.96l0.724,0.1l0.14,-0.42l0.235,0.5l0.149,-0.21l0.184,0.37l0.132,-0.31l0.491,0.79l1.094,0.14l0.52,0.65l0.228,-0.2l0.164,1.03l0.106,-0.74l-0.023,0.39l0.23,-0.6l0.313,0.23l0.207,-0.72l0.306,1.15l0.243,-0.87l0.4,1.59l0.604,0.41l0.057,-0.23l0.185,0.86l0.16,-0.17l0.038,0.8l0.443,-0.78l0.211,0.27l1.344,3.31l0.403,0.31l0.1,0.96l0.255,-0.34l-0.009,0.49l0.06,-1.07l-0.018,1.31l0.321,0.44l0.202,2.21l0.15,-0.26l-0.025,1.78l-0.042,-1.2l0.16,0.67l0.041,-0.59l0,1.75l-0.433,1.52l-0.249,-0.28l-0.249,0.63l-1.839,1.19l-1.688,0.34l-0.421,0.74l-0.125,-0.4l-0.716,-0.16l-0.186,-0.52l-0.362,0.58l-0.19,-0.95l-0.18,0.75l-0.247,-0.56l-0.633,1.22l-0.533,-0.14l-0.192,0.31l-0.834,-0.34l-0.172,0.41l-0.39,-0.23l-0.248,0.82l-0.156,-0.53l-0.144,0.48l-0.382,-0.63l-0.279,0.5l-0.278,-0.6l-0.444,0.07l-0.241,-0.73l-0.09,0.6l-0.145,-0.16l-1.167,0.93l-1.151,-0.55l-1.006,0.21l-0.241,0.34l-0.419,-0.5l-0.131,0.44l-0.426,-0.57l-1.087,0.68l-0.914,-0.27l-0.252,-0.47l0.01,0.26l-0.332,-0.03l-0.054,-0.32l-0.237,0.43l-0.659,-0.13l-0.018,0.42l-0.587,-0.15l-0.079,0.34l-0.212,-0.38l-0.598,0.01l-0.488,1.23l0.027,-0.57l-0.323,-0.23l-0.139,0.27l-0.525,-1.09l-0.467,0.23l-0.109,-0.62l-0.276,0.67l-0.251,-0.69l-0.629,1.18l-1.853,-0.53l-0.214,0.51l-0.416,-0.31l-0.184,0.39l-0.28,-0.52l-0.179,0.38l-1.084,-0.84l-0.633,0.32l-0.297,-0.45l-0.737,0.45l-0.655,-0.01l-0.909,-0.56l-0.628,-0.02l-0.131,0.32l-0.326,-0.19l-0.258,0.53l-0.954,-0.93l-1.354,-0.29l-0.231,-0.55l-1.19,0.55l-2.372,-0.81l-0.269,-0.68l-0.402,0.35l-0.19,-0.68l-0.017,0.41l-0.35,0.1l0.403,0.6l0.066,-0.31l-0.247,-0.01l0.19,0.38l0.167,-0.36l0.226,0.87l0.436,-0.48l2.127,0.22l0.628,-0.51l0.294,0.49l0.834,0.4l0.615,-0.39l1.249,0.88l0.625,-0.27l0.761,0.5l1.794,0.36l7.6,0.17l0.861,0.42l2.682,-0.87l1.472,0.09l0.448,-0.6l0.857,0.27l0.438,-0.3l2.76,-0.2l1.73,-0.68l0.928,0.32l0.471,-0.28l0.313,0.5l0.55,-0.53l0.224,0.42l0.788,-0.66l2.273,-0.82l0.622,0.41l0.433,-0.23l0.112,0.27l0.493,-0.57l0.078,-0.98l0.082,1.64l-0.282,-0.28l0.654,0.56l0.131,0.71l0.284,-0.47l0.486,2.42l-0.388,2.48l0.311,4.45l-0.206,3.02l0.234,-0.76l0.087,2.49l-0.146,0.18l-0.035,-0.3l-0.143,1.03l-0.088,-0.27l0.071,0.65l-0.273,-0.04l0.112,0.64l-0.301,-1.05l-0.455,0.84l-0.608,0.34l-0.952,-0.04l-0.411,0.43l-0.126,-0.53l-0.434,0.66l-0.14,-0.5l-0.435,0.86l-0.73,0.49l-0.024,0.4l-0.598,-0.2l-0.264,0.48l-0.651,-0.45l-1.639,-0.18l-0.861,0.48l-0.162,0.67l-0.526,-0.21l-0.259,0.55l-0.592,-0.54l-0.249,0.16l-0.138,-0.69l-0.024,0.42l-0.999,0.58l-1.558,-0.28l-0.291,0.2l-0.339,-0.29l-0.276,0.25l-0.321,-0.27l-0.221,0.32l-0.543,-0.77l-0.5,0.1l-0.277,-0.65l-0.62,0.68l-0.341,-0.67l-0.422,0.52l-1.057,0.02l-2.588,-0.58l-0.238,-0.33l-1.462,0.07l-0.387,-0.47l-1.136,0.44l-0.284,1.31l-0.056,-0.9l-0.303,0.39l-0.692,-0.79l-1.325,-0.31l-0.328,0.32l-0.234,-0.59l-0.711,0.9l-0.453,-0.13l-0.353,0.45l-0.236,-0.28l-2.368,-0.03l-0.452,-0.33l-0.802,0.37l-0.442,-0.74l-0.142,0.46l-0.397,0.27l-0.204,-0.24l-0.725,0.81l-0.439,-0.19l-0.369,0.23l-0.886,-0.67l-0.141,0.6l-0.189,-0.65l-0.114,2.35l0.576,4.58l0.243,0.23l-0.314,1.81l-0.006,5.06l-0.328,1.26l0.164,4.77l-0.159,-0.42l0.322,-1.07l0.251,0.9l1.469,0.49l2.389,-0.45l0.963,0.3l1.1,-0.41l0.716,0.27l1.517,-0.48l2.501,-0.26l0.655,-0.42l1.276,0.34l0.421,-0.45l1.375,0.82l1.747,-0.33l0.402,0.89l0.663,-0.32l0.204,0.64l0.572,-0.66l0.234,0.24l0.397,-0.34l-0.221,0.08l0.06,-0.41l-0.106,0.66l0.123,-3.47l0.176,-0.85l0.157,0.14l0.225,-0.41l0.969,-4.34l0.104,0.9l0.059,-1.61l0.31,1.43l0.74,1.02l-0.271,5.53l0.117,-0.27l0.85,1.08l1.54,0.09l1.078,-0.9l1.173,-0.23l0.508,-0.86l0.541,0.29l0.714,-0.39l1.669,0.32l0.467,-0.29l0.154,0.2l0.238,-0.45l0.279,0.02l-0.04,0.69l0.125,-0.3l-0.067,-1.11l-0.087,1.07l-0.559,1.11l-0.495,4.34l-1.041,2.97l-0.09,2.3l0.099,0.93l0.296,0.05l0.002,-0.37l0.034,0.46l-0.508,1.81l0.053,-0.33l-0.404,-0.04l-1.54,0.21l-1.497,-0.26l-0.698,0.26l-1.711,-0.69l-3.344,0.72l-0.526,-1.01l-0.861,1.22l-0.282,-0.18l-0.592,0.59l-1.431,0.11l-4.295,-1.55l-0.696,0.34l-1.568,-1.32l-2.717,-1.36l-0.3,-0.67l-0.714,0.26l-0.292,-0.9l-0.096,0.43l-0.327,0.09l-0.136,-0.7l-0.499,0.44l-0.511,-0.27l-2.514,-2.43l-0.455,-0.04l-0.225,0.69l-0.163,-0.43l0.152,0.52l0.359,-0.57l-0.221,-0.67l-1.487,2.07l-1.023,2.88l-0.094,3.05l0.258,1.11l3.427,2.48l2.157,0.51l3.222,-0.08l0.603,-0.4l3.159,0.07l0.615,-0.35l4.985,-0.35l2.044,0.64l1.081,-0.11l0.375,0.53l0.953,-0.39l0.364,0.86l0.14,-0.5l0.392,-0.28l0.275,0.4l0.596,-0.66l0.296,0.24l0.239,-0.57l0.519,0.83l0.399,-0.83l0.1,0.52l0.381,0.39l0.243,-0.18l0.6,0.81l1.047,0.06l0.293,-0.35l0.442,0.31l0.198,-0.26l0.692,0.77l0.675,-0.68l0.625,0.74l1.802,-1.13l0.515,-0.03l0.256,-0.48l0.454,-0.04l0.295,0.41l2.282,-3.18l-0.185,-2.48l-1.949,-3.85l-1.699,-1.24l-0.351,-0.7l-0.455,-0.03l-0.236,-0.95l-0.405,0.45l-1.145,-0.46l-1.139,-2.26l0.437,-1.07l0.173,0.98l0.162,-1.28l0.555,-1.62l0.562,-0.51l0.285,-1.3l0.22,0.39l0.568,-0.14l0.41,-0.81l2.53,-1.63l2.345,-3.79l0.051,0.68l0.032,-0.53l-0.121,0.5l-0.153,-1.17l-0.144,0.31l-1.244,-0.47l-0.23,-0.38l-0.031,0.43l-0.827,-0.51l-0.209,0.61l-0.691,-0.76l-2.023,-0.57l-0.285,-0.48l-2.581,1.12l-0.376,-0.26l-0.116,-0.87l-0.148,0.73l0.149,0.71l0.395,-0.22l0.26,0.8l3.153,1.78l0.413,0.61l0.695,-0.19l0.307,0.45l0.954,-0.48l0.376,0.76l0.558,-0.98l0.874,-0.64l0.428,-1.11l0.451,0.38l0.307,-0.94l0.544,0.48l0.159,-0.47l0.554,-0.31l0.763,-5.18l0.155,-4.04l-0.052,0.73l-0.198,-0.42l-0.072,0.43l-0.012,-0.55l0.031,0.34l-0.188,-0.18l0.204,0.9l-0.092,-2.6l0.699,-2.83l0.016,-4.46l0.11,-0.59l0.115,0.5l-0.215,0.16l0.033,-0.42l0.045,0.69l-0.061,-0.94l0.323,6.29l-1.642,15.41l-0.099,3.69l-1.38,4.46l-0.16,2.35l-0.251,0.31l0.269,0.45l0.021,-1.54l-0.163,1.16l0.057,-1.38l0.041,0.96l-0.099,-0.25l-0.134,0.24l0.266,0.59l-0.001,-1.26l0.043,0.73l-0.067,-0.68l-0.222,0.59l0.137,0.31l0.033,-0.41l0.038,0.45l-0.049,-0.96l0.09,1.15l-0.121,-1.58l0.149,1.02l-0.101,-0.29l-0.204,0.26l0.278,0.78l-0.064,-1.24l-0.005,0.68l-0.279,-0.3l-0.033,0.5l-0.035,-0.33l0.663,0.58" style="fill:none;fill-rule:nonzero;stroke:#000;stroke-width:2px;"/></g><g><path vector-effect="non-scaling-stroke" d="M78.825,97.09l0.154,-0.5l0.054,0.68l0.115,-1.03l0.251,0.48l-0.563,3.55l0.744,3.47l0.344,0.3l0.024,-0.4l0.68,2.1l0.79,0.39l0.517,0.95l0.407,-0.14l-0.001,0.23l0.062,-0.38l0.2,0.35l0.595,0.05l0.287,0.64l0.427,-0.23l0.719,0.26l0.746,1.09l0.506,-0.31l0.459,0.12l0.126,-0.29l0.495,0.62l0.173,-0.82l0.692,1.4l0.995,-0.08l0.254,-0.34l0.457,0.16l0.634,1.15l0.273,-0.42l0.162,0.53l0.435,-0.49l0.229,0.22l1.073,-0.46l0.585,0.5l0.237,-0.12l0.149,0.72l0.395,-0.98l0.544,-0.25l0.952,0.32l0.772,-0.31l1.031,0.14l0.788,-0.56l3.179,-0.62l0.263,-0.64l0.33,0.34l0.28,-0.68l0.459,0.7l0.324,-0.52l0.72,0.51l1.428,-0.78l1.461,-0.08l0.208,0.63l0.525,-0.54l0.301,0.77l0.952,-2.1l0.22,0.68l0.222,-0.7l0.166,0.59l0.541,0.08l0.621,-0.82l0.586,-0.2l0.179,0.44l0.498,-1.19l0.498,-0.18l0.312,-0.67l0.221,0.17l0.258,-0.24l0.01,0.29l0.596,-3.69l-0.005,1.37l0.108,-0.61l0.506,-0.66l-0.018,0.33l0.255,-1.45l0.269,6.1l-1.242,3.19l-0.234,-0.55l-0.743,0.04l-0.814,0.97l-0.247,0.83l-0.033,-0.35l-0.417,0.3l-0.776,-0.52l-0.495,0.42l-0.207,-0.52l-0.572,0.63l-0.278,-0.55l-0.058,0.41l-0.411,0.3l-0.102,-0.21l-0.155,0.41l-1.85,0.46l-1.761,0.92l-1.111,-0.22l-0.84,0.32l-0.425,-0.43l-0.629,0.36l-0.3,-0.61l-0.67,0.74l-0.273,-0.4l-0.43,0.47l-1.841,0.34l-0.284,-0.21l-1.433,0.46l-0.367,0.91l-0.043,-0.45l-0.339,-0.06l-0.249,1.15l-0.144,-0.71l-0.537,-0.36l-1.054,-0.24l-0.36,-0.53l-1.039,0.33l-0.476,-0.74l-0.676,0.62l-1.279,0.23l-1.105,-0.14l-0.327,-0.37l-0.672,0.11l-0.361,-0.69l-0.538,0.59l-0.283,-0.44l-0.064,0.29l-1.607,-0.11l-0.234,0.34l-0.728,-0.53l-0.363,0.23l-2.013,-1.59l-0.661,-0.36l-0.476,0.19l-0.29,-0.43l-0.138,0.19l-0.414,-0.83l-0.378,-0.06l-0.016,-0.48l-0.275,0.33l-0.064,-0.4l-1.429,-1.04l-0.48,-0.86l-0.063,-1.98l0.435,-2.29l-0.382,-1.9l0.292,0.11l0.054,-0.51l0.01,0.87l0.177,-0.82l-0.121,-2.52l0.328,-1.7l-0.127,0.18l-0.137,-0.38l0.048,0.6l-0.179,-0.72l0.423,-0.86l1.312,-1.26" style="fill:none;fill-rule:nonzero;stroke:#000;stroke-width:2px;"/></g><g><path vector-effect="non-scaling-stroke" d="M132.944,190.35l-1.093,0.2l-0.295,-0.3l-0.848,0.41l-0.048,0.46l0.427,-1l0.157,1.32l-0.057,-0.54l1.909,1.57l0.987,0.13l1.251,1.06l0.271,-0.38l0.458,0.66l0.796,0.29l1.2,1.13l3.36,1.81l0.896,0.05l0.276,1.09l0.117,-0.33l0.621,-0.03l0.324,0.73l0.459,-0.28l1.333,0.07l0.23,-0.51l0.764,0.77l0.48,-0.44l0.519,0.69l1.917,1.17l1.989,0.53l0.289,-0.26l0.47,0.51l0.218,-0.25l1.082,0.51l0.339,0.92l0.18,-0.48l0.511,0.02l0.311,0.47l0.956,-0.51l0.491,0.55l1.315,-0.54l1.266,0.24l0.543,-0.21l0.925,0.36l0.379,0.5l0.771,-0.18l0.331,0.25l1.379,-0.12l0.533,-0.58l0.73,0.37l0.373,-0.5l0.646,0.5l0.332,-0.23l0.772,0.39l0.363,0.53l0.88,-0.44l3.581,0.15l1.121,-0.58l0.327,0.18l0.232,-0.52l0.576,0.52l2.08,0.02l1.568,-0.48l0.627,0.04l0.301,0.34l0.53,-0.31l0.189,0.55l0.535,-0.59l0.218,0.77l0.182,-0.78l0.567,-0.78l0.222,0.39l0.24,-0.65l0.366,0.66l0.275,-0.48l0.379,0.4l0.691,-0.07l1.189,-1.36l1.209,0.04l0.094,-0.5l0.18,0.52l0.433,-0.36l0.277,0.64l1.243,-2.02l0.972,-0.47l0.209,0.25l0.37,-1.25l0.453,-0.34l0.106,0.32l0.704,-1.34l1.576,-4.38l0.391,-3.06l0.101,0.25l0.316,-0.67l0.042,0.27l0.596,-10.17l-0.214,-6.51l0.36,-6.01l-0.421,-4.84l-0.063,-5.99l-0.752,-6.14l-0.662,-20.59l-0.195,0.34l-0.167,-3.59l-0.618,-2.33l-0.178,0.31l-1.25,-2.59l-0.046,0.3l-0.29,-0.34l-0.268,-1.18l-0.169,0.6l-0.021,-0.52l-0.434,0.33l-0.778,-1.42l-0.106,0.25l-0.36,-0.15l0.074,0.49l0.129,-0.51l-0.182,0.73l0.015,-0.53l-0.708,-1.29l-0.787,-0.26l-0.323,0.08l-0.039,0.39l-0.459,-1.13l-0.153,0.23l-0.005,-0.71l-0.326,0.58l-0.044,-0.77l-0.333,1.07l-1.298,-0.89l-0.292,0.07l-0.046,0.45l-0.53,-0.81l-0.115,0.25l-0.198,-0.92l-0.265,0.34l-0.567,-0.45l-0.187,0.44l-0.09,-0.47l-0.591,0.34l-0.376,-0.35l-0.201,0.34l-0.304,-0.47l-0.083,0.84l-0.219,-0.92l-0.256,0.07l-0.242,-0.65l-0.306,0.09l-0.019,-0.54l-0.378,0.54l-0.104,-0.87l-0.392,0.67l-0.137,-0.23l-0.641,0.42l-0.809,-0.49l-0.297,-0.65l-0.086,0.31l-0.366,-0.02l-0.07,-0.29l-0.671,0.17l-0.276,-0.35l-0.042,0.57l-0.193,-0.61l-0.149,0.65l-0.239,-1.51l-0.408,0.49l-0.332,-0.17l-0.083,0.41l-0.547,-1.4l-0.528,0.19l-0.056,0.36l-0.534,-0.78l-0.47,-0.14l-0.071,0.23l-0.41,-1.23l-0.125,0.42l-0.085,-0.44l-0.073,0.24l-0.21,-0.27l-0.276,0.14l-0.072,-0.49l-0.666,-0.65l0.059,0.76l-0.251,-0.72l0.007,0.75l-0.214,-2.73l-0.28,1.04l-0.389,-1.1l0.065,-2.86l-0.131,1.94l0.172,-1.9l-0.077,1.12l-0.077,-0.8l-0.068,0.58l-0.888,0.13l-0.358,-0.33l-1.477,1.25l-0.383,-0.29l-0.144,0.63l-0.184,-0.44l-0.644,-0.29l-1.861,0.07l-0.093,0.37l-0.51,-0.19l-0.195,0.36l-0.576,-0.4l-0.281,0.24l-1.598,-0.21l-0.292,-0.84l-0.374,0.63l-0.211,-0.87l-0.39,1.07l-0.139,-0.34l-0.663,0.79l-3.453,-1.04l-0.227,0.69l-0.571,-0.71l-0.285,0.55l-0.684,-1.18l-0.338,0.05l-0.191,-0.76l-0.373,0.69l0,-0.39l-0.195,0.2l-0.999,-0.87l-0.48,-0.21l-0.153,0.27l-0.977,-2.25l-0.262,-0.05l0.061,-0.64l-0.171,0.11l-0.298,-0.63l-0.301,-1.5l0.236,-1.23l-0.205,0.08l0.019,-0.37l-0.123,0.67l0.198,-0.73l-0.343,-1.25l0.299,-0.79l0.057,-6.18l0.035,1.19l0.582,-0.46l0.533,0.14l0.376,0.44l0.308,-0.19l0.173,0.63l0.312,-0.56l0.175,0.46l0.378,-0.65l0.998,-0.22l0.407,0.29l0.283,-0.29l0.753,0.79l0.521,-0.09l0.148,-0.59l0.502,0.51l0.337,-0.48l1.331,1.12l1.46,-0.43l1.143,0.26l0.339,0.42l0.792,-0.15l0.415,0.6l0.775,-0.59l1.198,-0.03l0.33,0.25l0.123,-0.55l0.179,0.6l0.289,0.03l2.605,-0.44l0.295,0.62l0.414,-0.46l0.17,0.65l0.433,-0.88l0.204,0.69l0.881,-1.71l0.083,0.45l0.071,-0.82l0.129,0.67l0.11,-0.2l0.303,0.44l0.956,-1.23l0.462,0.16l0.252,-0.35l0.042,0.4l0.165,-0.51l0.002,0.64l0.342,-1.75l-0.201,-1.87l-0.094,0.6l-0.11,-0.79l-0.257,0.36l-0.357,-0.4l-0.101,0.25l-1.019,-0.99l-0.151,-0.8l-0.604,0.29l-0.153,-1.16l-0.089,0.45l-0.41,0.12l-0.288,-0.6l-0.646,0.74l-0.237,-0.52l-0.349,0.09l-1.146,-1.08l-0.51,-0.07l-0.243,0.3l-0.424,-0.33l-0.307,0.77l-0.027,-0.55l-0.392,-0.23l-0.235,0.6l-0.492,-0.95l-0.353,0.25l-1.31,-0.93l-0.823,0.35l-0.388,-0.86l-0.537,0.83l-0.164,-0.48l-0.587,0.68l-0.318,-0.11l-0.552,0.43l-1.6,-0.31l-1.536,0.85l-0.206,0.58l-0.277,-0.36l-0.218,0.78l-0.396,-0.86l-0.463,0.19l-0.203,-0.24l-1.2,1.34l-0.523,0.22l-0.216,-0.47l-0.578,1.08l-0.478,0.26l-0.078,0.71l0.124,-0.48l-0.343,-0.03l-0.019,1.44l0.029,-0.5l-0.296,0.12l0.103,-0.83l0.115,2.37l0.231,-0.26l0.161,0.19l0.851,2.31l0.239,-0.66l0.067,0.6l0.232,-0.42l0.572,-0.01l0.351,0.46l0.279,-0.32l0.288,0.52l1.72,1.1l0.697,-0.44l3.122,0.82l5.316,-0.11l0.701,-0.65l0.567,0.01l0.361,-0.71l0.34,0.37l0.242,-0.79l0.468,0.77l1.178,-0.34l0.18,0.43l1.058,-1l0.233,0.3l0.213,-0.32l0.019,0.47l0.18,-0.59l0.028,1.11l0.514,-3.08l0.43,1.89l-0.131,-0.46l0.827,-1.92l-0.134,0.89l0.76,4.2l0.477,13.38l-0.134,-0.52l-0.245,0.47l0.059,-0.92l0.013,1.05l-0.062,-0.6l-0.463,0.77l-0.344,-0.37l-0.057,0.62l-0.357,-0.66l0.025,-0.96l0.135,0.81l0.092,-0.81l-0.093,0.83l-0.098,-0.53l-0.318,1.15l-0.314,-0.29l-0.121,0.52l-0.077,-0.41l-0.013,0.51l-0.216,-1.11l0.012,0.38l-0.327,0.36l-0.138,-0.23l-0.176,0.52l-0.05,-0.35l-0.106,0.46l-0.137,-0.78l-0.708,0.77l-0.108,-0.92l-0.2,0.69l-0.119,-0.46l-0.009,0.5l-0.679,0.27l-0.145,0.4l-1.028,-0.19l-0.358,0.39l-0.178,-0.23l-0.283,0.63l-0.311,-0.45l-0.295,0.71l-0.142,-0.58l-0.629,-0.26l-0.236,-0.87l-0.327,0.7l-0.151,-0.78l-0.331,0.97l-0.288,-0.43l-0.749,0.88l-0.632,0.15l-0.461,-0.46l-1.118,-0.09l-0.287,0.37l-0.447,-0.35l-0.425,0.45l-1.614,-1.13l-1.064,-0.1l-0.256,-0.64l-1.094,0.4l-0.128,-0.25l-0.145,0.2l-1.032,-0.3l-0.075,0.21l-0.249,-0.29l-0.03,0.4l-0.251,-0.46l-0.05,0.71l-0.013,-0.61l-0.791,-0.79l-0.334,0.25l-0.063,-0.38l-0.549,0.41l-0.397,-0.29l-0.233,0.28l-0.986,-0.95l-0.152,-0.64l-0.166,0.3l0.072,-0.55l0.082,0.68l0.288,-0.02l-0.137,0.38l-0.178,-0.39l0.273,0.24l-0.162,-0.19l-0.034,0.69l-0.07,-0.53l-0.069,0.56l0.064,-1.42l-0.149,0.58l0.061,-0.3l0.211,0.82l0.108,-0.23l-0.084,0.45l0.232,-0.92l0.505,1.91l0.816,0.65l-0.041,0.96l0.142,-0.61l0.322,1.43l0.213,-0.51l0.151,0.35l0.142,1.94l0.142,-0.44l0.108,0.67l0.055,-0.38l-0.275,3.59l-0.115,0.25l-0.196,-0.63l-0.315,1.71l-0.184,-0.85l-0.038,0.73l-1.122,1.31l-0.087,0.61l-0.024,-0.23l-0.211,0.25l-0.303,-0.16l-0.016,-0.83l0.015,1.23l-0.848,0.35l-0.104,-0.37l-0.34,1.16l0.027,-0.37l-0.262,-0.01l-0.046,0.73l-0.027,-0.39l-0.62,-0.23l0.069,-0.52l-0.428,1.07l-0.413,0.14l-0.384,-0.45l-0.157,0.25l-0.148,-0.72l-0.265,0.83l-0.57,0.49l-0.396,-0.31l-0.643,0.67l-0.134,-0.2l-0.083,0.52l-0.259,-0.37l-0.245,0.46l-0.515,-0.92l-0.118,0.5l-0.029,-0.29l-0.629,0.82l-0.962,0.05l-0.133,0.48l-0.235,-0.34l-0.33,0.52l-0.177,-0.66l-0.213,0.18l0.024,-0.54l-0.186,0.69l-0.058,-0.46l-0.72,1.09l-0.483,0.12l0.003,-0.24l-0.305,0.29l-0.02,-0.21l-0.536,1.61l0.045,-0.57l-0.329,0.05l-0.054,0.78l0.001,-0.43l-0.584,0.14l-0.128,-0.31l-0.533,1.94l-0.28,-0.2l-0.231,0.31l-0.052,-0.43l-0.289,0.87l-0.169,-0.51l0.008,0.68l-0.94,2.34l-0.961,1.96l-0.551,0.54l-0.06,-0.3l-0.396,0.82l-0.695,2.72l-0.16,2.64l-0.103,-0.18l-0.261,0.41l-0.075,3.07l0.064,-1.41l-0.027,0.85l-0.063,-0.42l2.962,1.11l1.994,0.13l1.63,-0.44" style="fill:none;fill-rule:nonzero;stroke:#000;stroke-width:2px;"/></g><g><path vector-effect="non-scaling-stroke" d="M137.994,174.38l-0.898,0.16l0.004,0.36l0.16,-0.26l0.36,0.12l0.16,0.56l0.113,-1.5l0.386,2.53l0.878,1.48l1.922,1.81l0.713,1.97l0.165,-0.45l0.367,0.72l0.378,-0.22l0.611,0.65l1.188,0.3l1.084,0.81l0.3,-0.2l0.978,1.49l2.041,1.24l1.584,0.51l0.457,-0.17l4.092,2.08l4.219,0.71l0.242,0.42l1.463,-0.54l0.782,0.38l0.465,-0.63l0.869,0.84l0.769,-0.13l1.653,0.9l1.16,0.21l1.593,-0.54l0.825,0.48l0.385,-0.26l0.229,0.53l0.553,-0.5l0.216,1.01l0.389,-1.03l0.673,-0.31l0.214,-0.52l0.446,0.27l0.257,-0.63l0.616,0.63l0.277,-0.52l0.498,0.41l0.857,0.03l0.814,-0.9l0.179,0.25l0.578,-0.26l0.193,0.68l0.232,-0.45l0.144,0.32l0.604,-1.03l1.261,-0.43l0.578,-0.88l0.476,0.29l0.314,-0.54l0.12,0.35l0.231,-1.61l-0.031,1.8l-1.34,-11.41l0.105,-3.3l-0.881,-7.91l-0.336,-10.34l-1.493,-15.39l-0.051,1.2l-0.175,-0.59l-0.149,0.54l-1.097,1.04l-0.686,0.15l-0.605,1.47l0.055,-0.89l-0.096,0.87l-0.719,-1.64l-0.382,0.73l-0.172,-1.07l-0.364,1.08l-0.228,-0.22l-0.909,0.99l-0.668,-0.38l-0.419,0.21l-0.213,-0.33l-0.483,0.37l-0.095,-0.21l-0.168,0.61l-0.11,-0.23l-0.598,0.35l-0.341,-0.22l-0.293,0.4l-1.208,-0.62l-0.545,0.17l-0.252,-0.47l-0.364,0.36l-0.958,0.02l-0.209,0.31l-0.596,-0.2l-0.316,0.38l-0.622,-0.89l-0.431,0.17l-0.2,-0.5l-0.569,0.7l-2.255,-0.7l-1.12,0.04l-0.658,-0.46l-0.287,0.27l-0.502,-0.38l-0.244,0.46l-0.145,-0.51l-0.822,-0.35l-0.279,-0.85l-0.204,0.55l-0.038,-0.8l-0.655,0.66l-0.344,-0.74l-0.068,0.37l-0.527,0.12l-1.089,-0.14l-1.007,-0.89l-0.879,-0.25l-0.576,0.44l-0.087,-0.45l-0.549,-0.4l-0.519,1.12l-0.534,-1.48l-0.283,0.28l-1.014,-1.8l-0.467,0.19l-0.202,-0.44l-0.377,0.38l-0.194,-0.97l0.162,0.46l-0.774,0.07l-3.157,-1.59l-0.806,-0.27l-0.333,0.22l-1.933,-1.12l-0.546,-1.16l-0.346,0.55l-0.215,-0.61l0.417,4.2l-0.173,4.22l0.4,2.54l-0.438,7.36l0.185,3.85l-1.176,9.34l-0.596,1.89l-0.101,3.65l-0.428,1.24l0.157,4.82l0.501,0.66l0.042,-0.77l0.08,0.45l0.967,0.61l0.983,0.08l0.255,0.86l0.762,-1.31l0.281,0.52l0.139,-0.62l0.293,1.13l0.159,-0.43l0.379,0.67l0.783,0.34l0.421,-0.27l0.121,0.22l0.075,-0.4l0.752,0.97l0.367,-0.31l0.315,0.75l0.081,-0.42l1.16,-0.46l1.122,0.15l-0.162,0.47l0.32,-0.55l0.171,0.31l0.163,-0.2l0.68,1.15l1.14,0.53l0.664,1l0.566,-0.4l0.421,0.76l0.253,-0.43l0.393,0.93l0.281,-0.46l0.665,1.45l0.954,0.77l1.509,0.35l0.404,-0.22l1.543,0.87l0.913,0.13l0.537,1.01l0.202,-0.51l0.725,-0.01l0.438,0.6l1.356,-0.59l0.431,0.36l0.51,-0.39l1.421,-0.02l0.373,-0.66l0.586,0.71l0.381,-0.28l0.851,0.66l1.238,0.03l0.364,0.4l1.183,-0.54l0.877,0.01l0.413,-0.51l0.619,0.4l0.346,-0.45l0.899,0.44l0.787,-0.34l0.312,0.32l0.597,-0.51l2.286,-0.77l0.523,0.1l1.098,-0.7l0.196,0.22l0.325,-0.8l0.444,-0.08l-0.073,-3.86l-0.209,1.24l-2.031,-0.67l-0.232,0.38l-0.635,-0.47l-0.117,0.73l-0.268,0.09l-0.084,-0.62l-0.483,-0.33l-0.258,0.62l-0.582,-0.82l-0.603,0.15l-1.13,-0.56l-1.104,0.35l-0.424,-0.72l-0.169,0.39l-2.293,0.55l-1.189,-0.28l-0.564,0.19l-1.767,-1.03l-1.781,-0.23l-2.095,0.11l-0.467,0.5l-0.874,-0.68l-1.226,-0.13l-2.858,-1.48l-2.368,-3.15l-0.236,-1.01l-0.106,0.47l-0.354,-0.27l-0.062,0.39l-0.36,-0.72l-0.287,0.22l-0.654,-0.8l-1.337,-0.6l-0.527,0.18l-0.3,-0.4l-0.256,0.97l0.052,-2.28l0.287,0.83l0.143,-0.79l0.215,0.2l0.246,-0.63l0.36,0.04l0.575,-0.79l0.322,0.11l1.659,-1.02l1.429,0.72l0.234,0.79l0.122,-0.21l0.447,0.21l0.338,1.23l0.296,-0.33l0.542,0.86l1.49,1.15l0.932,0.17l1.005,1l0.34,-0.3l0.704,0.76l2.23,0l1.072,-0.89l0.425,0.2l1.013,-1.22l-0.397,-0.33l-1.994,0.19l-3.424,1.06l-0.525,0.51l-0.839,-0.24l-0.19,0.3l-0.242,-1.71l-0.055,0.38l-0.235,-0.69l-0.023,-2.53l0.443,-2.88l0.222,-0.03l0.167,-2.38l-0.405,0.66l-0.285,-0.3l-0.12,0.26l-0.322,-0.54l-0.307,0.8l-0.891,-2.12l-0.214,-0.26l-0.524,0.58l-0.212,-0.84l-0.62,1.03l-0.45,-0.16l-0.847,0.57l-0.216,-0.33l-0.458,0.42l-2.173,0.37l-0.587,-0.77l-0.088,0.24l-0.037,-2.5l1.379,-3.36l1.056,-1.03l0.487,-1.03l1.477,-1.36l1.352,-0.92l1.982,-0.49l1.214,0.29l0.96,0.7l0.298,0.71l0.133,-0.21l0.367,0.21l0.216,0.68l0.843,-0.07l0.47,0.74l0.822,-0.19l1.126,0.72l0.557,-0.63l0.618,0.82l0.676,-0.24l1.131,1.03l2.137,1.06l0.058,0.71l-1.09,4.03l-2.276,3.81l-0.04,2.19l0.202,-1.67l0.325,0.59l1.466,-0.94l0.915,-1.44l0.179,-1.24l-0.182,0.27l-0.234,-0.32l-0.11,0.3l-0.26,-0.62l-0.533,-0.09l-1.304,-1.43l-2.873,-1.97l-2.471,-0.79l-1.111,-0.82l-0.453,0.18l-1.728,-0.54l-0.712,0.23l-0.025,0.26l0.415,0.14l0.102,0.46l0.25,-0.23l0.262,0.94l0.847,0.31l0.556,1.24l0.277,-0.43l0.802,0.16l0.619,0.93l1.217,-0.47l2.801,0.47l0.671,-0.19l1.375,1.25l0.472,-0.24l0.713,0.88l0.615,1.94l-0.773,6.27l0.169,2.63l0.488,1.36l1.795,1.11l0.232,0.53l0.477,-0.23l0.352,0.52l0.095,-0.33l0.57,-0.15l0.336,0.27l1.705,-1.34l0.344,-0.77l0.911,-0.5l0.309,-1.06l0.345,-0.05l0.619,-1.14l0.275,-1.15l-0.054,-1.92l-0.459,-1.42l-1.238,-1.66l-0.545,-0.07l-0.352,-0.45l-0.15,0.6l-0.266,-0.67l-0.131,0.23l-0.475,-0.51l-0.179,-0.87l-0.121,0.39l-0.135,-0.44l-0.002,0.38l0.373,-2l1.362,-3.28l0.755,-1.04l0.106,-1.08l0.076,0.42l0.185,-5.16l-0.174,1.07l-0.099,-0.89l-0.282,0.45l-0.954,-0.24l-0.117,0.21l-0.381,-0.32l-0.582,0.22l-1.541,-1.8l-0.445,0.07l-0.217,-0.52l-0.379,0.47l-2.404,-0.95l-0.172,0.34l-0.044,-0.45l-0.169,0.52l-0.265,-0.69l-0.136,0.37l-0.278,-0.56l-0.393,0.13l-0.345,-0.75l-0.54,0.84l-0.456,-0.58l-0.862,1.19l-0.351,-0.25l-1.202,1.01l-0.853,0.16l-0.64,-0.55l-1.174,0.16l-0.437,-0.28l-0.219,0.61l-0.113,-0.5l-0.558,-0.41l-0.501,0.76l-0.765,-1.22l-1.522,-0.88l-0.523,-0.69l-0.62,0.06l-0.915,-0.55l-1.246,0.06l-0.537,-0.48l-2.3,-0.12l-2.118,-0.62l-0.064,-0.42l-0.625,-0.29l0.036,0.41l-0.155,-0.97l-0.047,0.21l-0.4,-0.47l0.198,-0.65l0.108,1.11l0.422,-0.51l1.805,0.43l0.437,0.68l0.155,-0.34l0.522,-0.06l0.371,0.42l0.902,-0.41l0.342,0.23l1.149,-0.26l1.043,0.41l0.584,-0.86l0.151,0.52l0.786,0.43l0.508,-0.81l1.152,1.16l0.478,-0.36l0.974,0.61l0.539,-0.17l0.131,-0.5l0.091,1.13l-0.03,-1.14l-0.158,0.6l-0.862,-0.6l-1.609,0.2l-0.589,-0.43l-0.336,0.1l-1.208,-1.33l-0.367,-0.03l-0.541,-1.21l0.207,1.05l-0.297,-0.75l-0.286,-0.02l0.015,0.81l0.126,-0.47l-0.171,0.23l-0.48,-2l0.13,0.31l0.191,-1.13l-0.249,1.47l-0.383,-2.15l-0.056,0.31l-0.251,-0.8l-0.131,0.36l-0.184,-0.23l-0.355,-0.87l0.202,0.42l-0.105,0.46l-0.153,-0.4l0.103,-0.34l0.113,0.2l0.066,0.75l-0.002,-1.61l-0.024,1.43l-0.238,-0.47l0.197,1.21l-0.231,-1.64l0.267,0.1l3.608,-3.73" style="fill:none;fill-rule:nonzero;stroke:#000;stroke-width:2px;"/></g><g><path vector-effect="non-scaling-stroke" d="M150.791,90.13l-0.159,0.27l-0.422,-0.44l0.033,-0.61l-0.078,0.52l0.15,0.71l0.296,-0.35l0.09,0.56l-0.357,2.7l0.2,3.85l0.263,1.12l0.061,-0.37l-0.023,2.65l0.374,-2.24l0.177,0.45l2.231,-4.33l0.138,0.46l0.111,-0.68l0.001,0.49l0.983,-2.81l0.105,0.58l0.063,-0.5l0.101,0.34l0.35,-0.24l0.058,0.92l0.149,-0.16l0.242,0.61l0.165,-0.23l0.136,3.17l0.27,1.25l0.29,-0l0.238,0.53l-0.177,0.37l1.605,-6.82l0.393,-0.24l0.039,1.14l0.01,-1.19l0.181,0.11l0.118,-0.63l0.395,0.93l0.273,-0.54l0.544,1.22l1.805,5.72l0.234,-0.45l0.135,0.38l0.514,-1.4l0.419,-1.84l0.145,-3.03l0.654,-1.9l1.385,7.08l-0.049,-1.78l-0.035,0.59l-0.065,-0.71l-0.057,0.29l-0.126,-0.17l-0.331,-2.48l0.193,-1.87l0.199,0.65l0.415,-0.5" style="fill:none;fill-rule:nonzero;stroke:#000;stroke-width:2px;"/></g></svg>