<?xml version="1.0" encoding="UTF-8" standalone="no"?><!DOCTYPE svg PUBLIC "-//W3C//DTD SVG 1.1//EN" "http://www.w3.org/Graphics/SVG/1.1/DTD/svg11.dtd"><svg width="100%" height="100%" viewBox="0 0 256 256" version="1.1" xmlns="http://www.w3.org/2000/svg" xmlns:xlink="http://www.w3.org/1999/xlink" xml:space="preserve" xmlns:serif="http://www.serif.com/" style="fill-rule:evenodd;clip-rule:evenodd;stroke-linecap:round;stroke-linejoin:round;"><rect id="Artboard14" x="0" y="0" width="255.101" height="255.101" style="fill:none;"/><g><path d="M63.362,94.25l-0.836,-0.08l-0.207,-0.44l-0.088,0.7l-1.516,0.46l-0.218,-1.05l-0.53,1.22l-0.254,-0.76l-0.897,6.94l-0.044,2.95l0.253,-0.04l0.265,1.04l0.137,-0.39l0.797,4.4l1.019,2.5l-0.024,5.1l-0.464,2.33l1.535,5.03l-0.071,-0.45l-0.235,0.93l-0.297,3.58l-0.024,4.38l-0.399,3.12l-0.369,0.7l0.131,3.2l-0.324,4.39l-0.81,4.69l-1.39,5.3l0.283,0.6l0.264,-0.86l0.464,1.85l0.59,0.69l0.334,-0.4l0.184,0.4l0.042,-0.48l0.087,1.09l-0.091,3.39l-0.62,3.95l0.319,2.33l-0.001,-0.29l0.288,0.2l0.886,3.24l-0.286,1.84l-0.757,1.73l-0.327,3.59l-0.071,-1.98l0.25,2.09l0.616,0.86l1.237,0.36l0.804,-0.32l1.008,0.31l1.287,0.47l0.489,0.8l0.983,-0.34l0.361,0.46l0.896,-0.57l0.341,0.33l0.451,-0.34l0.426,0.11l0.098,-0.34l0.138,1.1l0.835,0.79l0.753,-0.16l3.066,1.12l1.947,0.05l0.646,0.62l0.697,-0.23l1.391,0.29l3.208,-0.21l0.274,1.19l-0.29,-0.35l0.202,-0.5l0.202,0.25l0.107,-0.69l0.065,0.6l0.554,0.47l0.442,-0.7l1.049,2.02l0.511,-0.13l0.67,1.19l0.795,0.51l0.2,0.64l0.328,-0.5l1.475,-0.3l1.685,0.29l1.303,-0.13l0.37,0.73l0.872,-0.4l0.381,1.44l0.187,-1.15l0.188,-0.44l0.245,0.3l0.128,-0.52l0.202,0.53l0.129,-0.59l0.215,0.79l0.094,-0.28l0.162,0.34l1.023,0.25l2.85,-0.79l1.146,0.3l0.964,-0.28l0.477,0.51l0.585,-0.45l0.343,0.26l1.153,-1.16l0.158,-0.72l0.626,0.42l0.357,-0.79l0.064,0.34l0.451,0.03l0.348,-0.48l0.51,0.3l1.266,-0.05l0.15,-0.33l0.786,0.27l0.391,-0.56l1.697,0.87l1.209,0.11l0.321,0.91l0.57,0.38l0.381,-0.56l0.98,-0.17l0.736,0.91l0.656,-0.65l1.478,-0.1l1.378,-0.77l0.795,0.44l0.676,-0.63l0.549,0.83l0.713,-0.09l0.528,-0.68l0.196,0.1l0.121,-0.64l0.436,0.51l0.19,-0.91l0.569,1.3l-0.28,-1.36l0.663,-2.85l0.781,-1.83l0.955,-1.47l0.473,-0.18l0.281,-0.94l0.861,-0.02l0.598,-0.81l0.63,-3.18l0.289,0.48l0.768,-2.2l0.464,-0.22l1.924,-2.78l1.629,-1l0.672,-1.87l0.182,0.54l0.501,0.11l0.327,-1.09l0.245,0.77l-0.448,0.66l0.04,-0.56l-0.089,0.46l-0.067,-0.67l-0.647,-0.32l-0.238,-1.27l-1.226,-2.68l-0.21,-1.37l-0.099,0.36l-0.177,-0.51l-0.157,0.29l-0.355,-1.19l-0.085,-14.38l0.478,-3.76l-0.523,-5.76l0.626,-9.08l-0.454,-0.96l-0.777,-4.73l-0.447,-1.49l-0.066,0.38l-0.267,-0.62l-0.155,-2.7l0.397,-4.71l-0.206,-0.95l-1.226,-1.28l-0.099,-0.85l-0.154,0.29l-0.103,-1.48l-0.161,0.43l-0.023,-6.46l-1.108,-9.4l-0.039,0.42l-0.128,-0.62l-0.075,0.4l-0.382,-1.74l-0.103,-2.18l-1.31,-2.9l-0.48,-2.01l-1.274,-0.74l-1.1,-1.87l-0.561,-0.17l-0.119,-0.37l-0.181,0.7l0.267,-1.38l-0.354,1.22l0.048,-0.22l-0.213,0.22l-0.305,-0.32l-1.615,0.23l-0.072,0.62l-0.313,-0.26l0.02,0.76l0.024,-0.54l-0.236,0.2l0.184,-1.15l-0.085,0.94l-0.224,-0.1l-0.106,0.49l0.061,-0.25l-0.304,0.01l-0.471,0.86l-0.799,-0.57l-0.284,0.12l-0.006,-0.59l-0.224,0.69l-0.124,-0.72l-0.266,2.11l0.126,-1.95l-0.059,1.19l-0.98,0.21l-0.473,-0.39l-0.828,0.98l-0.269,-0.6l-0.226,0.87l-0.296,0.35l-0.3,-0.12l-0.768,1.23l0.187,-0.43l0.033,0.29l-0.147,-1.22l-0.112,0.6l-1.646,0.32l-2.669,-0.79l-0.306,0.83l0.026,-0.44l-0.416,-0.25l-0.149,1.21l-0.667,-2.29l-0.198,0.23l0.075,-1.69l-0.246,1.18l-0.208,0.2l-0.167,-0.71l-0.491,1.19l-0.154,-0.32l-0.71,0.42l-0.964,-1.13l-0.184,0.27l-0.308,-0.12l-0.189,0.72l-0.078,-0.28l-0.521,0.2l-0.487,-0.45l-0.382,0.8l-0.25,-0.03l-0.411,-0.76l-0.433,0.22l-0.561,-0.46l-1.742,-0.32l-0.465,-0.79l-0.476,0.44l-0.635,-0.26l-0.79,0.33l0.066,0.33l-0.083,-0.5l-0.752,0.21l-1.444,-0.47l-0.274,0.23l-0.51,-0.51l0.035,-0.43l-0.222,1.1l-0.212,-1.11l-0.067,1.38l-0.972,-1.07l-2.555,-0.61l-0.317,0.55l-1.037,-0.69l-0.229,0.86l-0.435,0.24l-0.249,-0.75l-0.655,-0.48l-1.894,-0.59l-0.361,-1.12l-0.606,0.78l-0.175,-0.6l-0.447,1.02l0.013,-0.53l0.098,0.97l-0.117,-0.27l-0.188,0.57l0.072,-0.42l-0.456,0.52l-1.316,-0.56l-0.6,0.15l-0.422,-0.42l-1.053,0.64l-0.315,-0.81l-0.74,0.81l-0.261,-0.4l-0.684,0.83l-0.699,0.21l-0.107,-0.28l0.259,-0.13l-0.137,0.98l0.219,-0.7l-0.12,1.03l-0.191,-0.64l-0.665,-0.54l-1.118,0.24l-0.197,-0.5l-0.538,0.77l0.011,-1l-0.726,1.48l-0.395,-0.35l-0.27,0.14l-0.188,-0.39l-0.333,0.3l0.1,-0.61l-0.224,0.95l-0.039,-0.21l-0.44,0.33l-0.333,-0.15l-0.211,0.4l-1.483,-0.25l-0.154,0.34l-0.539,0.18l-0.446,-0.39l-0.259,0.33l-0.175,-0.64l-0.941,1.54l-1.213,0.33l-0.366,1.37l-0.242,-0.39l-0.374,0.05l-0.251,0.68l-0.531,-0.55l-0.524,0.96l0.024,-1.44l-0.468,1.53l-0.258,-0.81l-0.216,1.38l-0.865,0.67l-0.124,0.44l-0.358,0l-0.622,1.17l-0.291,1l0.147,0.87l-0.134,-0.9l-0.225,0.1l0.114,-0.67l-0.981,4.99l-0.337,0.11l-0.331,1.16l-0.168,-0.27l-0.164,0.16l-0.94,3.1l-0.285,-0.02l-0.46,0.75l-0.067,-0.47l-0.328,0.88l-0.263,-0.76l-0.064,0.72l-0.358,0.56l-0.034,-0.55l-0.484,1.63l-0.14,-0.33l-0.089,0.32l0.008,-1.33" style="fill:none;fill-rule:nonzero;stroke:#000;stroke-width:4px;"/></g><g><path d="M67.965,118.01l0.408,0.51l0.06,0.73l0.125,-0.64l0.02,0.79l0.153,-1.36l-0.322,3.78l0.203,0.96l0.124,-0.43l0.118,1.53l0.786,1.62l1.165,1.41l0.638,0.07l1.823,1.16l0.506,0.74l0.667,-0.22l0.231,0.69l0.593,-0.62l0.245,0.59l0.608,-0.49l0.38,-1.27l0.101,0.56l0.49,0.28l0.156,-0.48l0.159,0.47l0.702,0.43l0.481,-0.48l1.043,0.92l2.33,-0.61l0.691,-0.53l1.074,-0.14l0.356,0.34l0.508,-0.51l0.403,0.74l0.365,-1.06l0.296,1.06l0.466,-1.27l0.183,0.66l0.704,-2.26l0.282,0.41l0.109,-1.06l0.209,0.78l0.273,-0.91l0.024,0.56l0.419,0.39l0.728,-0.5l0.907,-1.8l0.381,0l0.013,0.52l0.078,-0.76l1.394,-2.55l0.222,-1.05l0.158,1.21l-0.033,-1.37l-0.144,0.87l-0.078,-1.64l-0.137,0.38l-0.361,-1.79l-0.044,0.43l-0.36,-0.23l-0.038,-0.5l-0.537,0.44l-0.569,-0.61l-0.174,0.25l-0.666,-1.25l-0.303,0.1l-1.767,-2.48l-0.419,-0.29l-0.264,0.45l-0.384,-0.86l-0.193,0.63l-0.143,-0.56l-0.868,-0.42l-0.263,-0.67l-0.666,0.39l-0.263,-1.09l-0.122,0.48l-0.94,0.4l-2.624,-0.06l-0.42,-0.29l-1.097,0.29l-0.476,0.87l-0.181,-0.37l-0.696,0.01l-0.26,1.41l-0.249,-0.81l-0.549,-0.28l-0.35,0.32l-0.806,-0.75l-0.352,0.31l-0.318,-1.42l-0.014,0.77l-0.239,0.44l-0.017,-0.83l-0.699,1.54l-0.253,-0.53l-0.913,0.96l-0.661,0.21l-0.127,-0.72l-0.736,1.96l-0.421,-0.54l-0.359,1.15l-0.072,-0.63l-0.33,-0.15l-0.036,-1.21l-0.003,0.42l0.129,-0.65l0.277,0.67l1.302,-0.8" style="fill:none;fill-rule:nonzero;stroke:#000;stroke-width:4px;"/></g><g><path d="M103.734,100.56l-0.378,-0.08l0.199,0.18l0.292,-0.56l0.534,0.49l-0.482,3.01l-1.444,4.28l-0.376,4.2l0.846,-1.6l0.11,0.55l0.741,0.45l0.282,-0.57l0.437,-0.04l0.29,0.67l2.45,1.07l1.763,-0.08l0.69,0.83l1.763,-0.49l0.58,0.34l1.576,-0.27l3.167,0.44l0.231,0.64l0.4,0.07l0.188,-0.41l0.647,-0.09l0.394,0.76l1.226,-0.92l0.434,0.44l1.267,-1.11l0.815,0.23l0.476,-0.82l0.482,0.76l2.015,0.8l0.461,1.06l0.092,-0.5l0.22,-0.12l0.089,0.5l0.323,-0.37l0.225,-1.31l-0.054,0.61l0.272,-0.66l0.002,0.3l0.334,-0.04l0.738,-1.46l0.676,-3.92l0.579,-9.03l-0.61,-6.46l-0.316,1.21l-0.088,-0.32l-0.402,0.17l-1.368,-0.53l-0.488,1.07l-0.111,-0.51l-0.673,-0.22l-0.345,0.97l-0.304,-0.63l-2.415,-0.22l-0.26,-0.33l-0.7,0.36l-1.963,-0.34l-2.148,0.4l-4.068,-0l-0.702,-0.3l-1.586,0.37l-0.623,-0.27l-1.421,0.62l-0.26,-0.2l-0.609,0.96l-0.271,-0.24l-0.668,0.15l-0.558,0.98l-0.65,-0.26l-0.336,0.97l-0.855,-0.71l0.334,-0.04l0.1,0.78l0.131,-0.44l-0.192,0.39l-0.125,-0.77l0.487,-1.61l-0.08,1.26l0.249,0.25l2.018,0.39l0.783,0.47l1.972,-0.53l2.821,-0.02l1.486,0.5l0.585,0.71l0.297,-0.26l0.716,0.1l0.606,0.9l0.735,-0.68l0.204,0.58l0.168,-0.47l0.339,1.06l0.516,-1.49l0.155,-0.24l0.309,0.32l0.456,-1.1l0.356,1.2l0.152,-0.2l0.254,0.59l0.435,0.16l-0.24,1.04l-0.156,-2.15l-0.29,0.95l-0.293,-0.68l-0.435,1l-0.994,0.84l-0.453,-0.01l-1.498,1.87l-2.118,1.74l-0.246,-0.54l-0.375,1.19l-0.093,-0.32l-0.074,1.57l0.12,0.8l0.272,-0.4l0.021,1.01l0.049,-0.29l1.938,2.34l1.095,0.1l0.365,0.54l0.612,-0.46l0.423,0.54l2.344,-2.7l0.675,-1.69l0.18,0.33l0.47,-0.2l0.409,-1.46l0.32,0.15l0.256,-0.41l0.111,-1.4l-0.086,0.48l-0.207,-0.26l-2.007,-3.55l-0.199,0.41l-0.446,-1.26l-0.142,0.19l0.091,-0.81l-0.133,0.85l0.014,-0.9l-0.435,1.24" style="fill:none;fill-rule:nonzero;stroke:#000;stroke-width:4px;"/></g><g><path d="M85.573,115.6l-0.47,1.07l-0.232,-0.55l-0.459,0.51l-1.134,-0.82l-0.208,0.19l-0.42,-0.21l-0.458,0.67l-0.715,-0.03l-0.549,1.01l-0.166,-0.34l-0.816,0.28l-0.631,1.35l-0.695,-0.3l-1.024,0.32l-0.742,1.54l-0.217,-0.28l-0.512,0.15l-1.54,1.8l-0.298,-0.59l-0.381,1.58l0.102,-0.26l1.047,1.97l0.797,-0.29l0.385,0.42l0.613,-0.03l0.57,-0.14l0.585,-0.66l0.265,0.27l1.708,-0.33l1.936,-1.9l0.603,-0.11l1.436,-2.85l0.266,-1.56l-0.458,-1.08l-0.324,0.2l-0.352,-0.37l-0.116,0.33l-0.365,-0.36l-0.169,-0.95l-0.192,0.5l0.222,0.2" style="fill:none;fill-rule:nonzero;stroke:#000;stroke-width:4px;"/></g><g><path d="M90.853,130.64l-0.243,-0.72l0.059,0.28l0.34,-0.4l0.354,0.42l0.262,-0.24l0.414,1.53l0.182,-0.62l0.067,0.71l0.269,-1.73l-0.129,0.66l0.116,-0.39l0.236,1.12l-0.285,5.89l-0.792,5.11l0.058,4.1l-0.346,3.3l0.194,3.07l0.19,-1.08l-0.154,0.32l-0.146,-1.66l0.082,0.47l0.202,-1l0.131,1.38l1.613,0.07l0.825,-0.69l0.867,0.4l2.445,-0.12l0.488,0.51l1.033,-0.64l0.489,0.22l0.832,-0.42l0.355,0.3l0.697,-0.93l0.145,0.35l0.078,-0.33l-0.076,0.44l0.483,0.03l0.203,-0.32l0.402,0.38l0.134,-0.7l0.639,1.48l0.039,-0.34l-0.101,0.57l-0.23,-0.95l1.051,-14.7l-0.128,-5.63l0.439,-5.36l-0.082,-0.9l-0.045,0.56l-0.214,-0.3l0.352,0.09l0.023,-0.38l0.17,1.14l-0.018,-0.53l-0.514,-0.57l0.139,-1.41l-0.361,2.02l-0.117,-0.48l-0.61,0.37l-0.519,-0.53l-2.167,-0.84l-0.322,0.59l-0.587,-0.25l-0.079,1.26l-0.356,0.52l-0.345,-1.45l-0.607,-0.06l0.022,-0.93l0.108,1.06l-0.729,0.13l-2.129,-0.78l-0.315,-0.5l-0.462,0.27l-0.026,0.38l-0.118,-0.19l-0.151,0.56l0.123,-0.67l-0.373,0.05l0.105,-0.26l-0.442,0.29" style="fill:none;fill-rule:nonzero;stroke:#000;stroke-width:4px;"/></g><g><path d="M99.679,122.44l0.119,-0.51l0.074,0.64l0.274,-0.42l0.257,0.16l0.17,-0.56l0.088,0.74l0.346,-0.74l0.18,1.33l-2.112,13.01l0.052,5.26l-0.045,-0.45l-0.126,0.2l-0.04,0.66l0.051,-1.46l-0.173,0.56l-0.6,-0.55" style="fill:none;fill-rule:nonzero;stroke:#000;stroke-width:4px;"/></g><g><path d="M80.483,167.19l1.281,0.64l0.229,1.29l0.402,-2.24l0.102,0.97l0.065,-0.66l0.026,0.42l0.711,0.68l2.448,-0.41l0.537,-0.64l0.944,0.4l0.437,-0.57l1.197,0.65l0.598,-0.32l1.039,0.27l0.223,-0.27l0.452,0.54l3.459,-2l2.107,-0.16l1.751,-1.37l2.927,-1.42l0.41,-0.62l1.148,-0.26l0.436,-0.72l1.045,0.26l0.974,-0.91l2.748,-1.25l0.34,0.48l0.384,-0.59l0.102,0.53l0.103,-0.55l1.486,-0.72l1.036,0.11l0.207,-0.84l0.398,-0.25l0.684,0.97l0.346,-0.9l0.332,1.19l0.139,-0.24l0.63,0.77l0.824,-0.1l0.285,0.32l0.821,-0.39l0.634,0.23l0.579,0.66l0.02,0.47l0.367,-0.11l-0.173,1.14l-0.019,-0.58l0.173,0.59l0.244,-0.96l0.366,0.41l0.166,-1.14l0.197,1.12l0.16,-0.19l0.608,0.99l0.669,0.42l0.606,-0.03l0.268,0.43l0.114,-0.26l0.107,0.71l0.027,-0.77l-0.3,0.61l-0.257,-1.12l0.241,0.74l-0.578,1.59l-0.31,-0.08l-1.033,1.31l-0.636,-0.12l-0.694,0.47l-0.043,0.59l-0.142,-0.46l-0.188,0.83l-0.076,-1.02l-1.05,-0.91l-0.304,-0.81l-0.117,0.42l-0.322,0.05l-0.219,-0.5l-0.773,0.9l-0.376,-0.49l-0.312,0.58l-0.487,-0.08l-0.366,0.58l-1.258,0.13l-1.887,-0.02l-0.972,-0.34l-0.483,0.26l-0.857,-0.39l-0.55,0.48l-1.568,-0.63l-1.21,0.06l-0.172,-0.4l-1.181,0.48l-0.399,-0.72l-0.609,0.71l-0.317,-0.49l-0.618,0.57l-1.541,0.55l-0.795,-0.33l-0.423,0.37l-2.014,-0.08l-0.481,0.46l-0.936,-0.25l-0.701,1.5l-0.159,-0.68l-0.721,-0.28l-0.321,0.7l-1.16,-1l-1.022,0.39l-0.399,-0.66l-0.304,0.76l-0.691,0.49l-0.437,-0.91l-0.392,0.89l-1.709,0.95l-0.375,0.04l-0.188,-0.42l-0.033,0.26l-0.115,-0.57l-0.173,0.42l0.058,-0.75l-0.059,1.46l-0.097,-0.8l-0.726,0.62l-0.751,-0.03l-0.298,0.34l0.029,-0.22l0.326,0.32l0.313,-0.05l0.068,-0.39l0.085,0.31l0.294,-0.12l0.728,1.13l2.247,1.56l2.761,1.03l0.497,1.07l0.272,-0.3l0.66,0.25l0.545,1.25l0.527,-0.39l0.813,0.14l0.576,0.61l1.741,-0.13l1.999,0.44l0.796,-1.07l0.199,0.65l0.838,0.48l0.716,-1.12l0.177,0.68l1.042,1.12l0.658,-0.34l0.201,0.38l1.612,0.74l3.195,-0.49l0.319,-0.48l1.359,-0.01l0.254,-0.36l0.424,0.41l1.066,-0.53l0.473,0.21l0.814,-0.65l0.294,0.97l0.629,-1.3l0.204,0.56l1.017,-2.46l0.073,0.46l0.35,-0.42l0.407,0.63l0.304,-0.38l0.717,0.25l1.201,-0.71l1.375,-2.05l-0.02,-1.63l0.335,-0.99l-0.139,0.5l-0.155,-0.44l0.082,0.95l0.2,-2.89l-0.245,-1.07l-0.709,-0.04l-0.042,0.72l0.162,0.32l0.069,-0.84l0.05,0.75l0.095,-2.1l-0.24,-0.33l-0.039,1.95l-0.394,-0.85l-0.33,0.25l-0.104,-0.98" style="fill:none;fill-rule:nonzero;stroke:#000;stroke-width:4px;"/></g><g><path d="M68.667,98l0.526,-0.09l0.132,0.39l0.627,-0.49l0.246,0.61l0.304,-0.82l0.202,6.97l0.271,-0.63l0.05,0.52l0.073,-0.49l1.166,-0.02l0.743,-0.81l1.246,0.61l2.913,0.24l2.468,-0.17l1.193,-0.76l1.012,0.58l2.017,0.3l0.133,0.46l0.712,-0.46l0.294,0.83l0.659,-1.05l0.074,0.78l0.355,0.31l0.76,-2.09l0.212,0.54l0.105,-1.19l0.51,1.78l0.362,-0.61l0.058,0.27l-0.024,-0.49l-0.252,1.3l0.043,-0.51l0.158,0.74l-0.159,-1.57l0.494,-6.26l0.6,-3.37l-0.244,1.49l-0.056,-0.42l-0.175,0.45l0.053,-0.24l-1.039,-0.65l-1.682,0.62l-0.252,-0.7l-0.454,-0.16l-0.317,0.63l-1.138,0.24l-0.722,1.05l-0.266,-0.31l-1.69,0.37l-0.856,-0.33l-2.544,0.25l-1.214,-0.31l-5.22,1.36l-0.597,-1.1l-0.445,0.91l-0.411,0.27l-0.275,-0.36l-1.316,2.22l-0.634,-0.66l-0.343,0.45l-0.075,-0.26l-0.326,0.06l0.025,-0.47l0.127,1.23l0.148,-0.52l-0.177,-0.13l0.03,0.55l-0.136,-1.02l0.357,-1.34l0.875,-0.3l1.644,-1.59l1.748,-2.39l1.921,-0.75" style="fill:none;fill-rule:nonzero;stroke:#000;stroke-width:4px;"/></g><g><path d="M107.304,84.52l0.173,0.25l-0.114,-0.55l0.271,0.41l0.1,-0.75l-0.133,1.74l0.345,-1.08l-0.036,0.43l-0.053,-0.86l-0.153,0.41l-0.832,-14.32l0.536,2.18l0.572,-1.34l0.722,0.46l0.462,-0.57l1.283,0.93l0.532,-0.37l0.512,0.5l1.328,0.37l2.828,0.18l1.536,-0.48l0.589,0.39l0.678,-0.34l0.214,0.48l0.134,-0.59l0.12,0.51l0.776,-1.21l-0.02,8.05l0.241,1.56l0.237,-0.17l0.344,0.6l0.12,1.22l-0.08,-2.35l-0.356,2.23l-1.359,-0.57l-3.823,0.17l-0.586,0.46l-0.961,-0.45l-0.421,0.88l-0.327,-0.83l0.234,-0.81l0.076,0.36l-0.25,0.37l0.077,-0.83l2.31,-2.16" style="fill:none;fill-rule:nonzero;stroke:#000;stroke-width:4px;"/></g><g><path d="M164.823,133.93l0.024,-0.96l0.054,0.69l0.384,0.19l0.148,2.05l0.123,-1.75l-0.559,1.92l-0.21,-0.34l-1.251,3.92l-2.739,6.08l-1.17,4l-0.653,3.92l-0.042,-0.29l-0.255,0.6l-0.307,1.79l-0.347,-0.04l-0.287,1.73l0.012,-0.47l-0.613,0.47l-0.556,0.99l-0.11,-0.55l-0.23,0.08l-0.153,0.88l-0.989,1.45l-2.041,4.67l-0.354,0.42l-0.184,-0.2l-0.367,1.09l-0.176,-0.39l-0.306,1.1l-0.201,-0.25l-0.895,2.39l0.022,-0.22l-0.339,0.4l-0.104,-0.22l-1.931,5.21l-0.226,2.42l-0.033,-0.43l-0.511,0.7l-0.162,-0.43l-0.134,0.55l0,-0.5l-0.497,4.88l0.676,5l0.264,0.55l0.065,-0.56l0.267,0.26l0.069,0.78l0.163,-0.72l0.082,0.89l0.176,-0.73l0.092,1.16l0.207,-0.62l0.334,1.82l1.255,1.5l0.122,-0.29l0.611,1.23l0.366,-0.12l0.706,1.83l0.512,0.27l0.168,1.08l0.185,-0.34l0.529,0.62l1.107,0.21l0.411,0.76l0.678,0.43l0.274,0.9l0.927,-0.14l1.639,1.15l0.257,-0.68l0.413,1.14l1.576,0.76l0.266,0.54l0.844,0.13l1.698,1.14l0.87,0.16l0.116,0.9l0.457,0.38l0.456,-0.73l0.099,0.83l0.516,-0.89l0.7,0.02l0.385,-1.12l0.874,1.15l0.704,-0.91l0.465,0.99l0.404,0.29l0.585,-0.53l0.416,0.73l1.146,0.82l1.285,0.22l1.679,-0.71l0.203,1.11l0.139,-0.44l0.469,-0.14l0.095,0.93l0.397,0.38l0.754,-1.54l0.276,0.56l0.994,-1.18l2.064,-0.97l0.691,0.18l0.449,-0.92l0.137,0.44l0.466,0.09l1.486,-0.52l0.22,0.4l0.672,-0.89l0.54,-0.21l0.19,-0.71l0.319,0.16l0.159,-0.31l0.185,0.19l0.808,-0.48l2.301,-2.07l0.592,-1.02l0.952,-0.73l0.275,0.22l1.425,-2.58l0.505,-0.4l0.701,-1.64l0.216,0.24l0.812,-0.56l0.83,-2.13l0.115,0.65l2.515,-6.88l0.311,0.84l0.954,-4.9l0.197,0.88l2.145,-5.86l0.838,-1.68l0.073,0.54l1.264,-6.37l1.056,-2.27l0.824,-3.23l0.335,-0.75l0.029,0.55l0.946,-5.64l0.102,0.66l0.343,-0.58l0.595,-2.38l0.151,0.4l0.086,-0.5l-0.034,1.05l0.539,-1l0.48,-5.35l0.158,0.53l0.09,-0.61l-0.011,0.91l0.217,-1.48l0.099,0.55l-0.273,-0.1l0.119,0.64l0.479,-2.16l-0.286,2.33l0.356,-3.67l-0.178,1.34l0.091,-0.83l0.105,0.87l0.198,-0.1l-0.045,0.22l-0.15,-0.29l-0.215,1l0.213,-0.32l0.422,1.07l0.184,-0.4l0.928,0.03l0.235,1.03l0.405,0.43l0.252,-0.67l0.497,-0.25l0.279,0.51l1.25,-0.55l0.334,0.62l0.145,-0.59l0.092,0.58l0.363,0.42l0.155,-0.17l0.734,1.11l0.392,0.12l0.286,-0.41l0.336,0.81l0.473,-0.27l0.071,1.02l0.203,-0.39l0.424,-0.05l0.041,0.75l0.841,-0.69l0.396,0.57l0.22,-0.56l0.343,0.81l-0.179,0.47l0.26,-1.81l-0.544,2.04l0.022,-0.49l-0.097,0.28l-1.71,-2.4l-1.42,-1.23l-0.314,0.41l-0.382,-0.87l-0.725,-0.35l-0.327,0.6l-0.925,-1.29l-0.188,0.98l-0.361,0.25l-0.086,-0.89l-0.699,-1.15l-0.994,-0.6l-0.441,-1.59l-0.113,0.65l-0.659,0.32l-0.256,-1.26l-0.49,0.69l-0.81,0.1l-1.777,-0.42l-0.241,-0.36l-0.776,0.15l-1.32,-1.08l-0.623,-0l-2.927,-2.47l-0.598,-0.04l-1.163,-0.85l-0.805,0.71l-0.056,-0.52l-0.908,-0.51l-0.463,0.54l-0.619,-0.77l-1.373,-0.37l-0.208,-0.82l-1.022,0.35l-0.421,-0.68l-0.274,0.39l-0.834,0.15l-0.657,-0.64l-0.179,0.26l-1.42,-0.23l-1.498,-0.57l-0.461,-0.5l-1.688,-0.28l-0.518,0.84l-0.415,-0.83l-0.63,1.32l0.038,-0.82l-0.44,-0.57l-0.282,0.92l-0.127,-0.88l-0.694,-0.99l-0.667,-0.04l-0.215,-0.99l-0.236,0.59l-0.52,0.3l-0.197,-1.27l-0.087,0.65l-1.627,0.33l-0.324,-0.42l-0.697,0.01l-0.393,-0.33l-0.173,0.22l-0.565,-0.78l-0.19,0.34l-0.599,-0.18l-0.114,-0.58l-0.333,0.39l-0.011,-0.4l-0.084,0.81l-0.278,-0.45l-0.441,0.82l-0.341,-0.93l-0.243,0.71l-0.139,-0.67l-0.555,-0.47l-0.383,0.43l-0.479,-1.24l-0.559,0.01l-0.25,-0.41l-0.873,0.54l-0.284,-0.24l-0.018,0.4l-0.823,-1.48l-0.051,0.3l-0.535,-0.22l-0.162,-0.55l-0.605,0.59l-0.333,-0.4l-0.244,0.49l-0.154,-0.64l-0.147,0.23l-0.88,-0.69l-0.317,0.37l-0.395,-0.4l-0.326,0.46l-0.587,-0.66l-0.48,0.65l-0.355,-1.32l-0.218,0.05l0.095,-1.13l-0.139,-0.21l-0.108,0.88l0.15,-0.94l-0.15,0.61l-0.739,0.54l-1.236,-0.17l-0.468,0.51l-0.589,-0.94l-0.441,0.32l-0.596,-0.96l-0.311,0.32l-0.26,-0.7l-0.303,0.94l-0.042,-0.63l-0,1.27l0.099,-1.24l-0.087,1.03l0.128,-0.86l-0.927,-1.13l-0.113,-1.48l-0.538,0.75l-0.049,-1.09l-0.29,0.93l-0.076,-0.64l-0.36,0.97l-0.275,-0.69l-0.372,0.12l-0.02,-0.47l-0.046,0.43l0.212,-0.66l0.157,0.56l0.195,-0.68l-0.218,0.68l0.742,-0.83l0.257,0.7l1.218,-1.95l1.374,-1.07l0.93,-0.07l0.372,-0.7l0.813,-0.06l0.105,0.7l0.303,0.05l0.817,-1.1l0.283,0.18l0.367,-1.05l-0.071,-0.59l-0.194,0.64l0.116,-0.87l0.075,1.74l0.174,-0.6l0.433,0.42l0.399,1.17l0.078,-0.21l0.355,0.18l0.23,0.78l0.114,-0.34l0.27,0.07l0.159,0.92l0.468,-0.5l0.618,0.42l0.306,-0.24l0.508,0.65l0.27,-0.82l0.059,0.72l0.257,0.48l0.157,-0.19l0.473,1.2l-0.005,-0.47l-0.147,0.67l0.099,-1.92l0.143,1l0.118,-0.89l-0.116,0.82l0.389,-0.73l0.186,0.22l1.101,-1.01l2.097,-2.89l0.056,-0.74l0.288,0.25l-0.139,-0.56l-0.036,0.58l0.638,-1.49l0.14,0.59l1.194,-4.11l1.974,-4.05l0.548,-2.64l0.851,-2.38l0.047,0.78l0.401,-2.09l0.118,1.6l0.235,-0.76l0.62,0.36l1.614,-0.59l1.06,0.93l0.252,-0.79l0.402,-0.21l0.17,0.73l0.604,0.67l0.342,-1.04l0.683,1.9l1.28,1.21l1.279,-0.01l0.394,-0.71l0.051,0.5l0.452,0.33l0.171,-0.23l0.35,0.76l0.746,0.18l0.128,0.51l1.041,0.07l0.353,0.92l1.357,-0.35l0.39,0.72l0.496,-0.34l1.467,0.44l0.363,-0.6l0.853,1.14l3.011,1.66l0.375,-0.26l0.605,0.5l0.441,-0.61l0.751,1.71l1.669,0.52l0.276,0.57l1.076,-0.4l1.39,0.93l0.114,0.62l0.738,-0.1l0.185,0.78l0.564,-0.24l1.465,0.41l0.393,-0.85l0.309,0.99l0.294,-0.56l0.239,1.24l0.242,-0.41l0.506,1.15l0.857,0.45l0.646,-0.14l1.005,1.21l0.101,0.71l0.569,-0.39l0.03,1.03l0.195,-0.85l0.291,0.13l-0.025,1.01l0.215,-1.69l0.204,0.64l0.217,-0.79l0.012,2.1l-0.232,-0.58l-0.836,5l-0.132,0.25l-0.161,-0.21l-1.079,3.01l0.086,0.79l-0.251,0.03l0.102,-0.3l-0.012,0.48l-0.32,0.52l-0.105,-0.23l-0.435,2.81l-0.498,1.05l-0.066,0.98l0.171,1.06l0.183,0.41l0.002,-0.64l-0.237,1.01l0.364,-0.75l0.05,1l0.244,-0.94l-0.145,3.02l0.368,-0.29l0.257,0.4l0.082,1.1l0.191,-0.09l0.065,0.7l0.183,-0.43l0.14,1.12l0.273,-0.41l0.058,0.36l0.311,-0.61l0.383,0.42l0.225,-0.82l0.113,1.14l0.776,0.97l0.364,0.18l0.161,-0.28l0.812,0.46l0.124,0.47l0.985,0.5l-0.026,0.42l0.273,-0.01l0.018,0.37l0.354,-0.11l0.081,0.37l0.39,-1.49l-0.502,1.67l0.185,-0.16l-0.045,0.37l0.243,-0.36l0.529,0.61l0.116,2.08l0.237,-1.41l0.163,0.98l0.03,-0.88l-0.324,1.98l0.205,-1.04l0.083,0.41l-0.211,-0.76l0.007,0.45l0.382,-0.15l-0.352,0.7l-0.089,-0.38l0.011,1.12l0.131,-1.78l-0.554,1.01l-0.051,-0.96l-1.288,-1.33l-0.229,0.31l-0.489,-0.46" style="fill:none;fill-rule:nonzero;stroke:#000;stroke-width:4px;"/></g><g><path d="M188.772,140.99l-0.061,0.66l0.732,-0.49l0.039,0.94l-0.03,-1l0.004,1.36l-1.85,2.73l-0.883,2.51l-0.204,1.57l-0.894,1.48l-1.707,4.4l-1.017,1.56l-0.034,-0.28l-1.317,4.36l-0.178,-0.6l-0.241,0.67l-0.161,-0.47l-0.673,2.36l-0.909,1.35l-0.063,-0.4l-0.314,0.97l0.019,-0.46l-0.723,2.87l-1.349,2.17l-0.149,-0.35l-0.338,0.96l-0.029,-0.5l-0.222,1.13l-0.842,1.22l0.123,1l-0.037,-0.36l-0.283,0.17l-0.107,0.95l-0.247,-0.55l-0.059,0.96l-0.003,-0.51l-0.257,0.28l0.014,-0.51l-0.195,0.15l0.142,-0.67l-0.432,1.7l0.129,-1.19l-0.106,2.31l0.01,-1.51l-0.196,0.92l-1.141,0.99l-0.209,-0.42l-0.175,0.62l-1.366,0.95l0.3,0.23l-0.041,-0.33l-0.138,0.45l0.095,-1.2l-0.21,0.55l-0.082,-0.72l0.063,1.15l-0.085,-0.23l-0.159,0.2l0.22,-1.12l0.301,1.69l-0.052,-2.07l0.612,-0.78l0.421,-1.83l0.124,0.35l0.362,-0.32l0.267,-0.94l0.761,-0.43l0.248,-0.55l0.104,-2.15l1.006,-0.73l0.228,0.2l0.71,-1l0.443,-0.09l2.407,-3.81l0.594,0.15l2.47,-3.32l0.435,-0.31l0.267,0.32l0.464,-0.9l0.13,0.26l1.834,-3.23l-0.284,0.66l0.249,-1.46l-0.298,2.33l-0.051,-0.75l-1.059,1.83l-0.891,0.68l-0.306,1.26l-0.043,-0.4l-0.305,0.11l-0.744,0.95l-0.111,-0.4l-0.669,1.45l-0.234,-0.24l-0.647,2.97l-1.478,2.36l-0.289,1.28l-0.37,-0.01l-0.518,1.01l-0.305,0.02l-0.1,-0.55l-0.746,2.56l-0.692,0.77l-0.12,-0.64l-0.221,3.59l-0.145,-1.05l-0.556,1.79l0.045,1.11l-0.021,-0.35l-0.204,0.31l-0.038,0.63l-0.163,-0.28l0.189,0.41l0.185,-0.22l-0.05,-1.11l-0.047,0.99l-0.073,-0.31l-0.99,2.25l-0.313,1.55l-0.12,-0.26l-0.415,0.6l0.032,-0.48l-0.3,1.01l-0.942,1.26l0.21,0.82l-0.204,-0.12l-0.06,0.96l-0.108,-0.65l-0.235,1.26l-0.174,-1.3l0.125,-0.3l0.138,0.29l-0.087,0.77l-0.229,-0.98l0.198,-0.86l-0.109,2.03l0.255,-0.42l-0.216,-0.36l-0.061,1.23l0.134,-2.25l-0.081,1.6l0.235,-0.35l0.004,0.41l0.042,-2.19l0.176,1.07l-0.038,-0.94l-0.443,1.47l0.08,0.44l0.182,-0.46l-0.06,-0.65l0.038,1.92l0.188,-0.64l-0.256,0.54l-0.051,-2.23l-0.172,1.81l0.159,-1.99l0.078,1.2l-0.296,0.69l0.102,-0.9l0.123,0.39l0.14,-0.32l0.045,1.38l-0.369,-1.63l0.211,-1.48l-0.201,2.08l0.025,0.81l0.185,-0.55l-0.093,-1.25l-0.258,1.37l0.286,-1.19l-0.005,1.29l0.022,-2.29l0.17,1.04l-0.07,-1.04l-0.217,1.98l-0.254,0.21l0.424,-0.48l-0.139,-0.32l0.156,1.74l-0.014,-3.2l-0.342,1.84l0.209,-0.49l-0.022,1.29l0.128,-1.48l-0.388,0.62l0.233,-0.55l0.102,0.34l-0.165,1.05l0.208,-1.53l-0.184,1.31l0.206,0.32l-0.336,-1.5l0.189,0.27l0.026,-1.39l-0.094,1.03l0.047,-0.85l0.401,0.99l-0.133,0.32l-0.003,-0.55l-0.428,1.51l0.011,-0.8l0.235,-0.19l0.051,1.51l0.007,-1.15l-0.144,0.41l-0.121,-0.66l0.167,-1.47l-0.059,1.82l0.041,-0.92l-0.158,0.74l0.038,-0.61l-0.199,0.22l0.225,0.13l0.039,-0.93l-0.398,2.24l0.127,-0.83l-3.41,-1.43l-0.515,-0.66l-0.143,0.33l-0.794,0.23l0.153,1.43l-0.196,-2.07l-0.315,-0.36l-0.084,0.59l-0.51,0.24l-0.082,-0.97l-0.125,0.74l-0.627,0.62l-0.036,-0.35l-0.166,0.68l-0.034,-0.21l-0.16,0.37l-0.188,-0.34l-0.642,0.05l-0.073,0.44l0.025,-0.29l-0.552,0.21l-0.166,0.63l-0.111,-0.43l-0.536,-0.25l-0.265,0.2l-0.091,-0.44l-0.312,0.37l-0.142,-0.53l-0.23,0.6l-1.903,1.35l-1.001,1.44l-0.024,-0.37l-0.195,1.42l-0.518,-1.74l-0.184,0.74l0.043,-1.33l-0.047,2.03l0.213,-1.18l0.327,1.07l0.322,-0.46l0.565,0.68l1.006,-0.55l0.452,0.56l1.29,-0.8l0.43,0.61l0.507,-0.48l1.994,-0.5l0.701,0.26l0.168,0.54l0.931,-0.47l0.398,0.33l0.794,-0.63l0.429,0.46l0.991,-1.09l0.745,0.19l0.463,-0.89l0.094,0.61l0.393,0.27l0.342,-0.25l0.801,0.87l1.361,0.28l1.131,-0.36l0.591,0.46l0.335,-0.28l0.219,1.18l0.245,-0.86l0.262,-0.16l-0.03,0.46l0.177,-1.35l0.04,0.58l0.384,0.29l0.306,-1.02l0.331,1.32l0.459,-0.35l0.025,1.09l0.801,-0.35l0.1,1.61l0.327,0.08l-0.047,0.94l0.09,-0.71l-0.097,0.91l0.1,-0.76l-0.014,0.78l0.11,-0.84l0.238,0.45l0.22,-0.44l0.07,0.28l0.165,4.19l-0.398,3.08l0.127,-1.3l-0.481,1.28l0.324,-0.4l0.212,1.42l-0.441,-3.51l0.333,1.51l0.133,-0.71l-0.429,1.55l-0.179,-0.72l0.113,1.61l-0.14,-1.08l-0.508,0.68l-0.302,-0.31l-2.038,-0.17l-0.222,-0.74l-0.04,0.47l-0.211,0.1l-0.096,-0.35l-0.146,0.4l-0.029,0.24l0.341,-0.05l-0.162,0.54l-0.277,-0.62l-0.592,-0.09l-0.119,-0.7l-0.167,0.62l-0.126,-2.26l-0.093,0.76l-0.189,-0.51l-0.539,-0.09l-0.129,-0.57l-0.258,-0.09l-0.157,0.34l-0.578,-0.2l-0.257,-0.78l-0.341,0.46l-0.43,-0.19l-0.3,0.2l-0.429,0.67l-0.391,-0.37l-0.204,0.46l-0.365,-0.83l-0.899,-0.25l-0.315,-0.39l-0.196,0.41l-0.562,-0.87l-0.239,1.29l0.043,-1.07l-0.547,-1.04l-0.216,0.43l-0.487,-2.63l-0.643,-0.49l-0.049,-1.06l-0.167,0.79l-0.212,-1.31l-0.4,1.37l-1.426,-0.32l-0.395,0.2l-2.001,-1.45l-0.247,0.88l-0.204,-0.63l-0.021,0.69l0.12,-1.7l0.12,0.83l-0.354,0.38l0.263,-0.05l-0.174,0.16l0,-0.34l-0.341,1.86l-0.195,3.07l0.172,-0.29l1.361,1.31l0.297,-0.28l0.929,1.98l0.608,0.5l-0.018,0.44l0.522,-0.19l0.253,0.43l0.646,0.14l0.494,-0.74l0.162,0.55l0.859,0.63l0.34,-0.74l0.451,-0.17l0.264,0.84l0.919,1.06l0.361,0.3l0.73,-0.1l1.826,1.96l0.671,0.09l0.048,0.58l0.348,-0.29l0.001,0.25l0.412,-0.01l0.777,1.27l0.323,-0.33l0.322,1.18l0.753,-0.72l0.533,1.25l0.195,-0.67l0.642,-0.33l1.207,0.01l0.299,-1.03l0.511,-0.43l0.156,0.78l0.73,0.44l0.524,-0.79l0.909,1.02l0.255,-0.67l0.23,0.58l0.265,-0.11l0.608,-1.28l0.359,-2.12l-0.856,-1.74l-0.473,-2.06" style="fill:none;fill-rule:nonzero;stroke:#000;stroke-width:4px;"/></g><g><path d="M168.239,138.98l1.288,-0.12l0.43,0.34l0.234,-0.78l0.197,0.36l-0.368,0.32l0.289,0.76l-0.168,0.63l0.055,-0.67l-0.277,0.05l-1.011,2.19l-0.484,0.43l-2.822,7.38l-0.206,1.3l0.104,-0.53l0.309,0.98l0.028,-0.96l0.145,2.22l0.605,0.37l0.326,1.03l0.442,-0.23l4.267,2.11l1.208,0.96l1.043,0.27l0.382,0.76l0.807,0.03l0.101,0.39l0.443,-0.43l0.389,0.41l0.383,-0.35l0.932,0.92l0.232,-0.31l0.517,1.25l0.196,-0.18l-0.154,-0.19l-0.011,0.49l0.765,-2.21l0.381,0.15l0.528,-0.41l0.528,-1.56l0.057,0.2l0.296,-0.33l1.125,-3.4l1.34,-5.89l0.818,-1.82l0.352,0.11l0.19,-0.44l0.198,1.19l0.03,-0.88l0.29,-0.49l-0.042,0.63l0.344,-3.07l-0.147,1.34l-0.054,-1.3l-0.004,0.39l-0.753,-1.12l-0.412,0.21l-0.452,-1.03l-0.275,0.1l-1.728,-2.04l-1.658,-1.13l-0.297,0.15l-1.348,-2.26l-0.944,-0.27l-0.198,-0.64l-0.859,0.31l-0.215,0.46l-1.135,-0.3l-0.236,0.59l-0.264,-0.52l0.247,-0.29l0.25,-0.08l-0.188,0.92l-0.107,-0.38l0.06,0.89l0.223,-2.79l-0.289,1.29l0.237,0.62l-0.266,0.31l0.301,0.32l-0.217,-0.65l0.198,-0.24l-0.275,1l0.124,-0.54l0.155,0.68l0.054,-1.15l0.72,0.87l0.324,-0.09l0.588,1.2l0.24,-0.13l0.244,0.89l-0.459,-0.37l-0.133,0.41l0.199,-0.74l-0.922,0.88l-0.587,0.01l-3.889,4.93l-0.302,4.66l0.374,2.62l0.724,0.04l0.219,0.86l0.215,-0.24l2.747,1.03l0.081,0.95l0.336,0.19l0.139,-0.73l0.438,-0.43l0.189,0.72l0.892,-1.29l0.4,0.22l0.991,-1.89l0.736,0.21l0.324,-1.82l0.444,1.09l0.255,-0.83l0.122,0.39l0.461,-0.39l0.406,-1.9l-0.298,-2.4l-0.584,-1.47l-0.301,0.41l-0.233,-1.15l-0.197,0.43l-0.494,-0.92l-0.111,-1.02l-0.153,0.3l0.051,0.39l2.52,-0.76" style="fill:none;fill-rule:nonzero;stroke:#000;stroke-width:4px;"/></g><g><path d="M178.437,147.82l-1.132,0.2l-0.062,-0.29l0.243,0.9l0.532,-1.37l0.033,0.75l0.217,-1.26l0.081,1.55l0.064,-1.3l-0.244,0.13l0.039,-0.88l-0.145,0.54l0.347,-1.33" style="fill:none;fill-rule:nonzero;stroke:#000;stroke-width:4px;"/></g><g><path d="M193.37,158.62l0.614,0.22l0.56,-0.66l-0.035,-0.57l-0.249,0.79l0.238,0.39l0.059,-0.31l0.085,0.61l0.023,-0.75l-0.267,0.67l0.233,-1.07l-0.292,0.52l-0.111,-0.8l-0.449,0.66l-1.537,0.87l-0.32,0.73l-0.327,-0.34l-0.279,1.04l-0.015,-0.39l-0.648,-0.14l-1.208,0.99l-0.189,1.06l-0.019,-0.23l-0.367,0.48l-0.184,1.12l-0.251,0.04l-0.098,0.97l0.273,-0.16l0.045,-0.82l-0,0.99l0.044,-1.24l0.214,2.06l0.998,1.25l1.892,0.87l0.615,-0.08l0.228,0.51l0.666,-0.21l0.153,0.43l1.412,-0.99l0.349,-0.74l0.33,0.34l1.076,-0.39l0.251,-0.72l0.326,0.33l0.439,-0.26l0.107,-0.6l-0.033,0.68l0.144,-1.29l-0.543,-4.22l-0.519,0.83l-0.685,-0.82l-0.109,-0.71l-0.283,0.47l0.076,-0.97l-0.259,0.65l-0.07,-0.55l-0.222,1.41l0.609,-1.86l-0.046,0.42l-0.752,-1.19l-0.109,-1.17l-0.021,0.44l-0.262,0.05l-0.21,-0.75l-0.035,1.52l0.105,-1.06l-0.185,0.31l-0.666,-0.62l-0.415,-1.12l-0.311,0.28l-0.951,-0l-0.379,-1.57l-0.681,0.83l-0.869,0.22l-0.396,-0.62l-0.943,0.32l-0.923,-0.26l-0.175,-0.76l0.231,0.99l0.066,-0.42l-0.204,0.86l0.192,-0.49l0.02,1.15l0.102,-2.09l0.041,0.4l0.215,-0.56l0.529,0.66l0.646,0.34l0.805,-0.11l1.948,1.26l2.059,-0.03l1.74,0.41l0.436,-0.44l0.699,0.72l0.432,-0.42l0.815,1.09l0.301,-0.34l0.092,0.81l0.402,-0.39l0.076,0.34l0.788,-0.31l0.49,0.3l-0.094,0.3l-0.074,-0.5l-0.12,0.44l0.017,-0.49l-0.073,1.09l-2.573,9.07l-0.374,3.62l-0.027,-0.4l-0.396,0.2l-0.491,2.2l0.099,-1.28l0.165,1.43l-0.024,-0.3l-0.289,0.46l0.1,-0.83l-0.18,2l-0.133,-1.48l-1.509,-0.57l-0.611,-0.97l-0.59,0.38l-2.5,-0.37l-0.749,0.29l-1.547,-1.11l-0.618,0.02l-1.501,-1.88l-1.044,-0.34l-0.399,-0.72l-0.702,0.45l-0.115,-0.27l-1.333,0.45l-0.026,-0.28l-0.45,0.08l-0.085,-0.38l-0.236,0.52l-0.845,-0.85l-0.267,0.58l0.068,-1.34l0.175,0.59l0.26,-0.7l-0.267,1.23l5.096,-9.01l0.192,0.39l0.341,-1.16l0.169,1.3l0.345,-2.99l0.303,-1.18l0.052,0.89l0.218,-1.39l0.301,0.8l0.279,-0.48l0.321,0.47l1.354,-0.3l1.235,-1.12l0.736,-1.34" style="fill:none;fill-rule:nonzero;stroke:#000;stroke-width:4px;"/></g><g><path d="M204.759,175.63l-0.343,1.23l0.668,-0.23l0.317,0.39l0.09,-0.26l0.062,0.73l0.201,-0.54l0.046,0.27l0.796,-0.68l0.648,0.17l0.27,-0.95l0.516,0.85l0.287,-0.71l0.054,0.44l0.385,0.11l0.111,-0.38l0.654,0.73l2.314,-2.86l0.164,0.6l0.503,-5.08l-0.476,0.86l-0.688,-2.43l-0.306,0.01l-0.149,0.83l-0.183,-0.73l-0.279,0.63l-0.38,-1.6l-0.955,-0.83l-0.878,-0.07l-0.164,-0.52l-0.655,0.15l-0.164,-0.35l-0.411,0.41l0.233,0.05l0.187,-0.48l0.122,0.39l-0.131,1.4l0.471,-1.55l0.153,0.63l0.327,-0.1l0.213,0.3l0.189,0.83l-0.073,-1.92l0.25,0.98l-0.165,-0.83l-0.4,1.54l0.13,-1.53" style="fill:none;fill-rule:nonzero;stroke:#000;stroke-width:4px;"/></g><g><path d="M157.17,145.59l0.051,-0.4l0.245,-0.13l-0.026,0.34l0.113,-0.3l0.193,1.22l0.036,-1.25l-0.206,0.09l0.074,-0.65l-0.116,0.53l0.169,-1.44l0.081,1.26l0.096,-0.75l0.218,0.82l-0.319,0.75l0.226,-1.07l-0.228,-0.25l-0.035,1.17l0.182,-0.71l0.216,1.32l-0.271,-1.33l-1.82,-2.92l-1.028,0.55l-0.876,-0.4l-0.631,0.6l-0.25,-0.23l-0.496,1.09l-0.08,-0.64l-0.223,0.6l-0.159,-0.3l-0.647,0.13l-0.835,1.19l-0.162,1.44l0.33,2.66l0.165,-0.34l0.304,1.34l0.245,-0.44l0.394,1.26l0.273,-0.58l0.634,3.05l0.472,0.74l0.127,0.99l0.703,0.36l0.061,0.87l0.611,-0.32l0.243,0.61l0.292,-0.35l0.19,1.11l0.409,-0.89l0.195,0.57l0.771,-0.67l0.453,0.29l1.035,-0.98l0.505,0.32l0.412,-1.01l0.38,0.82l0.273,-0.79l0.302,0.35l0.662,0.01l1.918,-0.88" style="fill:none;fill-rule:nonzero;stroke:#000;stroke-width:4px;"/></g></svg>